<svg id="Layer_1" data-name="Layer 1" xmlns="http://www.w3.org/2000/svg" viewBox="0 0 1280 1280"><defs><style>.cls-1{fill:#fff;}</style></defs><title>help</title><path class="cls-1" d="M640,65a572,572,0,0,1,321.44,98.16,576.88,576.88,0,0,1,208.4,253,574.15,574.15,0,0,1-53,545.24,576.88,576.88,0,0,1-253,208.4,574.15,574.15,0,0,1-545.24-53,576.88,576.88,0,0,1-208.4-253,574.15,574.15,0,0,1,53-545.24,576.88,576.88,0,0,1,253-208.4A571.31,571.31,0,0,1,640,65m0-65C286.54,0,0,286.54,0,640s286.54,640,640,640,640-286.54,640-640S993.46,0,640,0Z"/><path class="cls-1" d="M881,473.16Q881,573,811.5,645t-169.5,72V819.33a46.5,46.5,0,1,1-93,0V621h93.25q63.45,0,103.59-42.28T786,472.7q0-61.12-43.28-103.42T638.7,327q-63.33,0-104,41.73T494,474.39q0,18.28-13.67,32.61t-33.17,14.34q-19.56,0-33.85-14.26T399,473.34q0-99.91,70.61-170.62T640,232q99.75,0,170.38,70.67T881,473.16ZM642,998.55q0,19.51-13.83,34.48t-32.67,15a46,46,0,0,1-32.67-13Q549,1022,549,1002.45A50.6,50.6,0,0,1,562.19,968q13.18-15,33.31-15a46.08,46.08,0,0,1,32.67,13Q642,979,642,998.55Z"/></svg>