<svg id="Layer_1" data-name="Layer 1" xmlns="http://www.w3.org/2000/svg" viewBox="0 0 670.05 2340.97"><defs><style>.cls-1{fill:#faf8f5;stroke-width:6px;}.cls-1,.cls-2,.cls-3,.cls-4,.cls-5{stroke:#000;stroke-miterlimit:10;}.cls-2,.cls-3,.cls-4{fill:none;}.cls-2,.cls-5{stroke-width:4px;}.cls-4{stroke-width:2px;}.cls-5{fill:#fff;}</style></defs><title>K_2.5</title><polygon class="cls-1" points="66.02 32.78 3.02 32.78 11.02 1517.78 128.02 1517.78 128.02 1911.78 15.02 1911.78 15.02 1997.78 275.02 1997.78 248.02 2316.78 550.02 2337.78 667.02 1313.78 484.02 352.78 453.02 357.78 388.02 39.78 281.02 63.78 266.02 3.78 163.02 34.78 66.02 32.78"/><line class="cls-2" x1="278.71" y1="243.06" x2="314.13" y2="235.2"/><line class="cls-2" x1="207.82" y1="258.79" x2="246.94" y2="250.11"/><polyline class="cls-2" points="280.55 396.56 237.02 404.78 163.02 34.78"/><polyline class="cls-2" points="237.66 75.64 281.02 63.78 343.02 384.78 304.21 392.1"/><line class="cls-2" x1="175.02" y1="92.78" x2="214.94" y2="81.86"/><line class="cls-2" x1="343.02" y1="384.78" x2="453.02" y2="357.78"/><polyline class="cls-2" points="91.02 203.78 91.02 265.78 3.02 265.78"/><rect class="cls-2" x="47.02" y="287.78" width="44" height="59"/><line class="cls-2" x1="47.02" y1="320.78" x2="91.02" y2="320.78"/><line class="cls-2" x1="60.15" y1="287.78" x2="60.15" y2="346.78"/><line class="cls-2" x1="76.11" y1="320.78" x2="76.11" y2="346.78"/><polyline class="cls-2" points="163.02 265.78 190.02 364.78 229.02 364.78"/><polyline class="cls-2" points="4.82 364.78 91.02 364.78 91.02 384.78 4.93 384.78"/><polyline class="cls-2" points="91.02 384.78 91.02 475.78 169.02 475.78 175.02 689.78 175.02 762.78 332.02 762.78 502.02 727.78 518.02 827.78"/><line class="cls-2" x1="288.02" y1="464.78" x2="395.02" y2="441.78"/><path class="cls-2" d="M645,512h24l35,176s8,71-21,76c-54.92,9.47-55,14-111,21-8.93,1.12-46-14-58-60-15.33-58.76-34-174-34-174l21-11" transform="translate(-229.98 -70.22)"/><polyline class="cls-2" points="332.02 762.78 353.02 885.78 523.02 857.78 526.02 871.78"/><polyline class="cls-2" points="530.02 885.78 559.02 988.78 431.02 1010.78 404.77 877.25 296.02 897.78 324.02 1052.78 404.02 1043.78"/><polyline class="cls-2" points="431.02 1010.78 436.02 1033.78 460.02 1030.78 467.02 1070.78 499.02 1064.78 495.02 1031.78 533.02 1025.78 528.02 993.78"/><polyline class="cls-2" points="324.02 1052.78 327.02 1070.78 405.02 1061.78 414.02 1135.78 456.02 1120.78 456.02 1212.78"/><polyline class="cls-2" points="414.02 1135.78 429.02 1315.78 468.02 1311.78 456.02 1256.78"/><line class="cls-2" x1="440.42" y1="1426.85" x2="480.02" y2="1426.78"/><polyline class="cls-2" points="429.02 1315.78 363.02 1325.78 373.02 1419.78 414.02 1419.76 414.02 1470.78 373.02 1470.78 373.02 1418.78"/><polyline class="cls-2" points="451.56 1426.78 452.02 1463.78 544.02 1473.78 553.02 1426.78 480.02 1426.78 468.02 1311.78"/><line class="cls-2" x1="480.02" y1="1466.82" x2="480.02" y2="1426.78"/><polygon class="cls-2" points="566.02 1107.78 553.02 1157.78 488.02 1157.78 496.02 1208.78 556.02 1188.78 587.02 1233.78 611.02 1216.78 584.02 1181.78 581.02 1156.78 592.02 1109.78 566.02 1107.78"/><line class="cls-2" x1="579.02" y1="1107.78" x2="567.02" y2="1154.78"/><line class="cls-2" x1="598.31" y1="1225.78" x2="573.02" y2="1189.78"/><line class="cls-2" x1="551.02" y1="1174.78" x2="492.09" y2="1183.73"/><line class="cls-3" x1="564.79" y1="1112.51" x2="590.96" y2="1114.29"/><line class="cls-3" x1="564.08" y1="1116.21" x2="590.2" y2="1118.56"/><line class="cls-3" x1="562.84" y1="1119.98" x2="589.04" y2="1122.48"/><line class="cls-3" x1="561.93" y1="1123.5" x2="588.13" y2="1126.38"/><line class="cls-3" x1="561.04" y1="1127.9" x2="587.24" y2="1130.2"/><line class="cls-3" x1="559.91" y1="1132.28" x2="586.28" y2="1134.27"/><line class="cls-3" x1="558.85" y1="1136.34" x2="585.44" y2="1138.87"/><line class="cls-3" x1="557.77" y1="1140.48" x2="584.47" y2="1143.03"/><line class="cls-4" x1="556.55" y1="1144.2" x2="583.33" y2="1146.9"/><line class="cls-3" x1="555.62" y1="1148.78" x2="582.46" y2="1151.63"/><line class="cls-3" x1="588.02" y1="1185.78" x2="564.02" y2="1201.78"/><line class="cls-3" x1="590.02" y1="1189.78" x2="567.02" y2="1204.78"/><line class="cls-3" x1="593.02" y1="1192.78" x2="568.57" y2="1208.55"/><line class="cls-3" x1="595.02" y1="1195.78" x2="571.02" y2="1211.78"/><line class="cls-3" x1="597.02" y1="1199.78" x2="574.02" y2="1214.78"/><line class="cls-3" x1="600.02" y1="1202.78" x2="576.02" y2="1218.78"/><line class="cls-3" x1="603.02" y1="1205.78" x2="579.02" y2="1221.78"/><line class="cls-3" x1="605.02" y1="1208.78" x2="581.02" y2="1225.78"/><line class="cls-3" x1="608.02" y1="1212.78" x2="584.02" y2="1229.78"/><line class="cls-3" x1="493" y1="1157.78" x2="502.26" y2="1206.7"/><line class="cls-3" x1="497.63" y1="1157.78" x2="506.57" y2="1205.26"/><line class="cls-3" x1="502.1" y1="1157.78" x2="511.02" y2="1203.78"/><line class="cls-3" x1="506.57" y1="1157.78" x2="515.26" y2="1202.36"/><line class="cls-3" x1="510.91" y1="1157.78" x2="519.02" y2="1199.78"/><line class="cls-3" x1="514.97" y1="1157.78" x2="523.02" y2="1199.78"/><line class="cls-3" x1="519.55" y1="1157.78" x2="526.87" y2="1198.5"/><line class="cls-3" x1="524.08" y1="1157.78" x2="531.37" y2="1196.99"/><line class="cls-3" x1="529.37" y1="1157.78" x2="536.13" y2="1195.41"/><line class="cls-3" x1="533.75" y1="1157.78" x2="541.02" y2="1193.78"/><line class="cls-3" x1="538.88" y1="1157.78" x2="545.58" y2="1192.26"/><line class="cls-3" x1="543.23" y1="1157.78" x2="549.52" y2="1190.95"/><polyline class="cls-2" points="396.02 1470.78 393.02 1515.78 480.02 1526.78 480.02 1498.78 523.02 1498.78 523.02 1533.78 480.02 1526.78"/><polyline class="cls-2" points="523.02 1533.78 561.02 1538.78 561.02 1551.78"/><polyline class="cls-2" points="418.2 1518.96 408.02 1619.78 461.02 1624.78 490.02 1659.78 554.77 1632.32"/><polyline class="cls-2" points="490.02 1659.78 505.02 1679.78 553.02 1681.78 557.02 1568.78"/><path class="cls-2" d="M772,1884c16-34,16-64,13-106,0,0-9,9-13,9-3,0-10-7-10-7l-13,108s9.55-4.54,13-5C764.49,1882.66,772,1884,772,1884Z" transform="translate(-229.98 -70.22)"/><polyline class="cls-2" points="431.02 1879.78 519.02 1890.78 532.02 1846.78 481.02 1841.78 431.02 1879.78 369.02 1873.78 369.02 1847.78 348.02 1844.78 378.02 1619.78 408.02 1619.78"/><polyline class="cls-2" points="414.02 1935.78 386.02 1935.78 381.02 2002.78 409.02 2003.78 418.02 1878.78"/><polygon class="cls-2" points="437.02 1949.78 424.02 2040.78 511.02 2050.78 511.02 2028.78 524.02 2027.78 524.02 2011.78 464.02 2006.78 470.02 1949.78 437.02 1949.78"/><line class="cls-2" x1="549.29" y1="2014.84" x2="586.4" y2="2019.34"/><path class="cls-2" d="M754,2082" transform="translate(-229.98 -70.22)"/><line class="cls-2" x1="274.02" y1="2012.78" x2="381.02" y2="2002.78"/><polyline class="cls-2" points="409.02 2003.78 405.02 2046.78 335.02 2046.78 334.02 2007.78"/><line class="cls-2" x1="383.63" y1="1967.82" x2="409.02" y2="1968.82"/><line class="cls-2" x1="405.02" y1="2046.78" x2="405.02" y2="2064.78"/><polyline class="cls-2" points="405.02 2080.78 405.02 2142.78 414.02 2142.78"/><polyline class="cls-2" points="464.46 2145.4 433.02 2142.78 424.02 2329.02"/><line class="cls-2" x1="570.98" y1="2154.29" x2="479.37" y2="2146.65"/><polyline class="cls-2" points="405.02 2142.78 405.02 2175.78 260.87 2164.86"/><line class="cls-2" x1="198.02" y1="318.78" x2="209.02" y2="356.78"/><line class="cls-2" x1="182.02" y1="258.78" x2="193.02" y2="297.78"/><line class="cls-3" x1="164.2" y1="270.14" x2="207.82" y2="258.79"/><line class="cls-3" x1="166.01" y1="274.74" x2="209.02" y2="263.78"/><line class="cls-3" x1="167.08" y1="280.36" x2="209.62" y2="268.81"/><line class="cls-3" x1="169.21" y1="285.17" x2="211.27" y2="274.04"/><line class="cls-3" x1="171.18" y1="290.36" x2="212.62" y2="278.78"/><line class="cls-3" x1="171.18" y1="295.7" x2="212.87" y2="284.07"/><line class="cls-3" x1="180.17" y1="328.66" x2="219.36" y2="316.48"/><line class="cls-3" x1="181.6" y1="333.93" x2="220.41" y2="321.73"/><line class="cls-3" x1="182.93" y1="338.79" x2="221.34" y2="326.42"/><line class="cls-3" x1="184.32" y1="343.88" x2="222.58" y2="332.61"/><line class="cls-3" x1="185.53" y1="348.33" x2="223.62" y2="337.78"/><line class="cls-3" x1="186.52" y1="352.95" x2="224.67" y2="343.06"/><line class="cls-3" x1="187.83" y1="357.78" x2="225.02" y2="347.78"/><polyline class="cls-2" points="594.02 1496.78 610.02 1453.78 610.02 1428.55 654.25 1431.81 586.02 1426.78"/><polyline class="cls-2" points="613.02 1502.78 627.02 1459.78 627.02 1492.78 647.25 1493.02"/><line class="cls-2" x1="601.02" y1="1502.78" x2="620.02" y2="1453.78"/><line class="cls-2" x1="637.52" y1="1492.89" x2="637.02" y2="1452.78"/><line class="cls-3" x1="595.06" y1="1493.99" x2="613.7" y2="1500.68"/><line class="cls-3" x1="596.23" y1="1490.83" x2="613.52" y2="1497.28"/><line class="cls-3" x1="597.58" y1="1487.19" x2="615.86" y2="1494.06"/><line class="cls-3" x1="598.82" y1="1483.87" x2="616.97" y2="1490.62"/><line class="cls-3" x1="600.15" y1="1480.3" x2="618.09" y2="1487.19"/><line class="cls-3" x1="601.57" y1="1476.48" x2="618.52" y2="1483.28"/><line class="cls-3" x1="602.93" y1="1472.84" x2="620.02" y2="1479.88"/><line class="cls-3" x1="604.38" y1="1468.93" x2="621.62" y2="1476.36"/><line class="cls-3" x1="605.58" y1="1465.69" x2="622.83" y2="1472.65"/><line class="cls-3" x1="607.04" y1="1461.78" x2="623.96" y2="1469.17"/><line class="cls-3" x1="608.2" y1="1458.66" x2="625.09" y2="1465.69"/><line class="cls-3" x1="610.12" y1="1455.19" x2="626.52" y2="1461.28"/><line class="cls-3" x1="651.45" y1="1456.26" x2="626.52" y2="1456.28"/><line class="cls-3" x1="651.05" y1="1459.78" x2="626.52" y2="1459.78"/><line class="cls-3" x1="650.65" y1="1463.24" x2="627.02" y2="1463.24"/><line class="cls-3" x1="650.27" y1="1466.61" x2="627.02" y2="1466.61"/><line class="cls-3" x1="649.86" y1="1470.2" x2="627.02" y2="1470.2"/><line class="cls-3" x1="649.45" y1="1473.8" x2="627.02" y2="1473.8"/><line class="cls-3" x1="649.04" y1="1477.37" x2="627.02" y2="1477.37"/><line class="cls-3" x1="648.59" y1="1481.28" x2="627.02" y2="1481.28"/><line class="cls-3" x1="648.19" y1="1484.8" x2="627.02" y2="1484.8"/><line class="cls-3" x1="647.25" y1="1488.37" x2="627.02" y2="1488.37"/><rect class="cls-5" x="108.02" y="43.78" width="28" height="39"/><path class="cls-2" d="M352,134" transform="translate(-229.98 -70.22)"/><path class="cls-2" d="M348,123" transform="translate(-229.98 -70.22)"/><polyline class="cls-2" points="114.02 55.78 122.02 63.78 113.52 72.28"/><line class="cls-2" x1="122.02" y1="63.78" x2="101.02" y2="63.78"/><rect class="cls-5" x="623.02" y="1373.78" width="28" height="39"/><polyline class="cls-2" points="629.02 1385.78 637.02 1393.78 628.52 1402.28"/><line class="cls-2" x1="637.02" y1="1393.78" x2="616.02" y2="1393.78"/></svg>