<svg id="Layer_3" data-name="Layer 3" xmlns="http://www.w3.org/2000/svg" viewBox="0 0 815.03 1765.71"><defs><style>.cls-1{fill:#faf8f5;stroke-width:6px;}.cls-1,.cls-2,.cls-3,.cls-4{stroke:#000;stroke-miterlimit:10;}.cls-2,.cls-3,.cls-4{fill:none;}.cls-2{stroke-width:4px;}.cls-4{stroke-width:2px;}.cls-5{fill:#fff;}</style></defs><title>kåken3.ai</title><polygon class="cls-1" points="708 1762.5 812 735.5 673 3.5 314 70.5 3 70.5 3 596.5 236 597.5 308 1010.5 459 1027.5 383 1737.5 708 1762.5"/><polygon class="cls-2" points="676.11 485.83 663.42 527.5 600.02 527.5 607.82 570 666.35 553.33 696.59 590.83 720 576.66 693.66 547.5 690.74 526.66 701.47 487.5 676.11 485.83"/><line class="cls-2" x1="688.79" y1="485.83" x2="677.08" y2="525"/><line class="cls-2" x1="707.6" y1="584.16" x2="682.93" y2="554.16"/><line class="cls-2" x1="661.47" y1="541.66" x2="603.99" y2="549.12"/><line class="cls-3" x1="674.91" y1="489.77" x2="700.43" y2="491.26"/><line class="cls-3" x1="674.21" y1="492.86" x2="699.69" y2="494.81"/><line class="cls-3" x1="673" y1="496" x2="698.56" y2="498.08"/><line class="cls-3" x1="672.12" y1="498.93" x2="697.67" y2="501.33"/><line class="cls-3" x1="671.25" y1="502.6" x2="696.8" y2="504.51"/><line class="cls-3" x1="670.14" y1="506.25" x2="695.87" y2="507.91"/><line class="cls-3" x1="669.11" y1="509.63" x2="695.05" y2="511.74"/><line class="cls-3" x1="668.06" y1="513.08" x2="694.1" y2="515.21"/><line class="cls-4" x1="666.87" y1="516.18" x2="692.99" y2="518.43"/><line class="cls-3" x1="665.96" y1="520" x2="692.14" y2="522.37"/><line class="cls-3" x1="697.56" y1="550.83" x2="674.15" y2="564.16"/><line class="cls-3" x1="699.52" y1="554.16" x2="677.08" y2="566.66"/><line class="cls-3" x1="702.44" y1="556.66" x2="678.59" y2="569.81"/><line class="cls-3" x1="704.39" y1="559.16" x2="680.98" y2="572.5"/><line class="cls-3" x1="706.34" y1="562.5" x2="683.91" y2="575"/><line class="cls-3" x1="709.27" y1="565" x2="685.86" y2="578.33"/><line class="cls-3" x1="712.2" y1="567.5" x2="688.79" y2="580.83"/><line class="cls-3" x1="714.15" y1="570" x2="690.74" y2="584.16"/><line class="cls-3" x1="717.07" y1="573.33" x2="693.66" y2="587.5"/><line class="cls-3" x1="604.88" y1="527.5" x2="613.91" y2="568.26"/><line class="cls-3" x1="609.39" y1="527.5" x2="618.11" y2="567.06"/><line class="cls-3" x1="613.75" y1="527.5" x2="622.46" y2="565.83"/><line class="cls-3" x1="618.11" y1="527.5" x2="626.59" y2="564.65"/><line class="cls-3" x1="622.35" y1="527.5" x2="630.26" y2="562.5"/><line class="cls-3" x1="626" y1="527.34" x2="633.92" y2="562.66"/><line class="cls-3" x1="630.78" y1="527.5" x2="637.92" y2="561.43"/><line class="cls-3" x1="634.97" y1="527.34" x2="642.14" y2="560.31"/><line class="cls-3" x1="640.17" y1="527.34" x2="646.83" y2="558.98"/><line class="cls-3" x1="644.49" y1="527.34" x2="651.64" y2="557.61"/><line class="cls-3" x1="649.54" y1="527.34" x2="656.13" y2="556.33"/><line class="cls-3" x1="653.82" y1="527.34" x2="660.01" y2="555.23"/><polygon class="cls-2" points="602.5 496 642.5 494 649.5 522 603.5 522 602.5 496"/><polygon class="cls-2" points="614 577.5 653 564.5 665 592.5 622 605.5 614 577.5"/><line class="cls-3" x1="624.65" y1="605.53" x2="614.78" y2="575.76"/><line class="cls-3" x1="662.42" y1="592.84" x2="652.56" y2="563.07"/><line class="cls-3" x1="659.09" y1="594.28" x2="649.22" y2="564.52"/><line class="cls-3" x1="655.76" y1="595.72" x2="645.89" y2="565.96"/><line class="cls-3" x1="652.22" y1="596.56" x2="642.36" y2="566.79"/><line class="cls-3" x1="648.89" y1="598" x2="639.02" y2="568.23"/><line class="cls-3" x1="645.36" y1="598.84" x2="635.49" y2="569.07"/><line class="cls-3" x1="642.03" y1="600.28" x2="632.16" y2="570.51"/><line class="cls-3" x1="638.39" y1="600.81" x2="628.52" y2="571.04"/><line class="cls-3" x1="635.06" y1="602.25" x2="625.19" y2="572.48"/><line class="cls-3" x1="631.53" y1="603.08" x2="621.66" y2="573.32"/><line class="cls-3" x1="628.19" y1="604.53" x2="618.33" y2="574.76"/><line class="cls-3" x1="605.48" y1="522.18" x2="604.08" y2="496.77"/><line class="cls-3" x1="643.86" y1="520.2" x2="642.46" y2="494.79"/><line class="cls-3" x1="640.04" y1="520.67" x2="638.64" y2="495.26"/><line class="cls-3" x1="636.2" y1="520.62" x2="634.8" y2="495.21"/><line class="cls-3" x1="632.38" y1="521.09" x2="630.98" y2="495.68"/><line class="cls-3" x1="628.53" y1="521.04" x2="627.13" y2="495.63"/><line class="cls-3" x1="624.72" y1="521.51" x2="623.32" y2="496.1"/><line class="cls-3" x1="620.86" y1="521.21" x2="619.46" y2="495.79"/><line class="cls-3" x1="617.04" y1="521.68" x2="615.64" y2="496.26"/><line class="cls-3" x1="613.2" y1="521.63" x2="611.8" y2="496.22"/><line class="cls-3" x1="609.38" y1="522.1" x2="607.98" y2="496.69"/><polyline class="cls-2" points="181.4 597.26 181 485.5 231 485.5 231 437.5 181 437.5"/><polyline class="cls-2" points="272 588.5 315 588.5 314 438.5 267 438.5 268 512.5 280 512.5 280 585.5 280 588.5"/><polyline class="cls-2" points="314 70.5 365.51 345.23 412 595.5 463 585.5 454 530.5 403 539.5"/><polyline class="cls-2" points="363 345.5 308 354.5 308 437.5"/><line class="cls-2" x1="314" y1="492.86" x2="392.89" y2="491.26"/><line class="cls-2" x1="315" y1="559.16" x2="405" y2="559.5"/><polyline class="cls-2" points="3 485.83 181 485.5 181 412.5 3 412.5"/><line class="cls-2" x1="231" y1="485.5" x2="231" y2="559.5"/><line class="cls-2" x1="757.5" y1="449.16" x2="397.79" y2="517.38"/><line class="cls-2" x1="409" y1="569.5" x2="457" y2="561.5"/><line class="cls-2" x1="428" y1="536.5" x2="437" y2="589.5"/><line class="cls-2" x1="798" y1="868.5" x2="625" y2="847.5"/><polyline class="cls-2" points="783 592.5 630 621.5 648 723.5 634.35 847.5"/><path class="cls-2" d="M586,1401" transform="translate(-136 -608.5)"/><path class="cls-2" d="M586,1401" transform="translate(-136 -608.5)"/><polyline class="cls-2" points="433 710.5 456 832.5 595 849.5"/><line class="cls-2" x1="421" y1="643.5" x2="427" y2="678.5"/><polyline class="cls-2" points="438.79 731.03 557 710.5 582.42 847.96"/><polyline class="cls-2" points="456 832.5 449 893.5 496 899.5 503 839.5"/><line class="cls-2" x1="460" y1="1027.5" x2="462" y2="1010.5"/><line class="cls-2" x1="477" y1="896.5" x2="474.68" y2="917.43"/><line class="cls-2" x1="470" y1="948.5" x2="467" y2="973.5"/><polyline class="cls-2" points="453.58 1078.16 593 1093.5 580 1212.5 504 1204.5 491 1323.5 566 1331.5 553 1464.5 506 1459.5"/><line class="cls-2" x1="488" y1="1457.5" x2="415.95" y2="1449.87"/><polyline class="cls-2" points="516.31 1085.96 504 1204.5 440.75 1198.02"/><line class="cls-2" x1="447.15" y1="1138.23" x2="509.65" y2="1145.23"/><line class="cls-2" x1="434.45" y1="1256.84" x2="496.53" y2="1263.68"/><line class="cls-2" x1="491" y1="1323.5" x2="429.03" y2="1316.82"/><polyline class="cls-2" points="425 1367.5 493 1375.5 495 1356.5 561 1363.5"/><line class="cls-2" x1="483.2" y1="1374.34" x2="474.85" y2="1455.11"/><line class="cls-2" x1="482" y1="1400.5" x2="558" y2="1408.5"/><line class="cls-2" x1="520" y1="1459.5" x2="525" y2="1406.5"/><line class="cls-2" x1="479" y1="1427.5" x2="523" y2="1432.5"/><line class="cls-2" x1="502.77" y1="1404.68" x2="500.65" y2="1428.56"/><line class="cls-2" x1="514.62" y1="1326.02" x2="511.95" y2="1358.3"/><polyline class="cls-2" points="780.92 1042.45 638 1064.5 593 1501.5 544 1496.5 538 1553.5 497 1549.5 495 1570.5"/><line class="cls-2" x1="403.98" y1="1564.71" x2="723" y2="1593.5"/><polyline class="cls-2" points="497 1549.5 501 1503.5 542.86 1507.3"/><polyline class="cls-2" points="768.12 1168.82 702.56 1161.67 666 1510.5 731 1517.5"/><line class="cls-2" x1="678" y1="1163.5" x2="643" y2="1507.5"/><line class="cls-2" x1="594.34" y1="1488.46" x2="644.35" y2="1494.21"/><line class="cls-2" x1="603.4" y1="1400.5" x2="653.46" y2="1405.68"/><line class="cls-2" x1="610.47" y1="1331.87" x2="660.5" y2="1337.25"/><line class="cls-2" x1="615.93" y1="1278.81" x2="666" y2="1284.49"/><line class="cls-2" x1="626.9" y1="1172.3" x2="676.52" y2="1178.01"/><line class="cls-2" x1="696.79" y1="1216.76" x2="762.51" y2="1224.17"/><line class="cls-2" x1="690.74" y1="1274.41" x2="756.69" y2="1281.65"/><line class="cls-2" x1="685.08" y1="1328.47" x2="751.24" y2="1335.5"/><line class="cls-2" x1="677.31" y1="1402.59" x2="742.85" y2="1409.5"/><line class="cls-2" x1="671.55" y1="1457.5" x2="738.18" y2="1464.5"/><polyline class="cls-2" points="645.95 850.04 641 897.5 684 902.5 689.08 855.84"/><polyline class="cls-2" points="406.55 1517.5 449 1521.5 444.38 1567.35"/><line class="cls-2" x1="667.58" y1="852.55" x2="662" y2="899.5"/><path class="cls-2" d="M869.94,1469.22" transform="translate(-136 -608.5)"/><path class="cls-2" d="M821.79,1511.3" transform="translate(-136 -608.5)"/><path class="cls-2" d="M842,1513" transform="translate(-136 -608.5)"/><path class="cls-2" d="M847.5,1466.5" transform="translate(-136 -608.5)"/><path class="cls-2" d="M867,1494" transform="translate(-136 -608.5)"/><line class="cls-2" x1="711.16" y1="858.86" x2="705.58" y2="905.81"/><polyline class="cls-2" points="734.16 861.86 728.58 907.81 699 904.5"/><line class="cls-2" x1="708.37" y1="882.34" x2="731" y2="884.5"/><line class="cls-2" x1="461.62" y1="577.08" x2="582.42" y2="482.37"/><polygon class="cls-2" points="740 885.5 761 892.45 744 950.5 721 943.5 740 885.5"/><polygon class="cls-2" points="761 892.5 785.02 895.3 781 939.5 759 936.5 761 892.5"/><line class="cls-2" x1="750.54" y1="890.23" x2="740.73" y2="921.04"/><line class="cls-3" x1="751.63" y1="922.03" x2="731.46" y2="915.6"/><line class="cls-3" x1="759.75" y1="896.18" x2="739.58" y2="889.75"/><line class="cls-3" x1="759.21" y1="898.59" x2="739.04" y2="892.16"/><line class="cls-3" x1="758.67" y1="901" x2="738.5" y2="894.57"/><line class="cls-3" x1="757.71" y1="903.27" x2="737.55" y2="896.85"/><line class="cls-3" x1="757.17" y1="905.68" x2="737.01" y2="899.26"/><line class="cls-3" x1="756.22" y1="907.96" x2="736.06" y2="901.54"/><line class="cls-3" x1="755.68" y1="910.37" x2="735.51" y2="903.95"/><line class="cls-3" x1="754.52" y1="912.58" x2="734.36" y2="906.16"/><line class="cls-3" x1="753.98" y1="914.99" x2="733.82" y2="908.57"/><line class="cls-3" x1="753.03" y1="917.27" x2="732.86" y2="910.84"/><line class="cls-3" x1="752.49" y1="919.68" x2="732.32" y2="913.25"/><line class="cls-2" x1="741.54" y1="918.23" x2="732.73" y2="947.04"/><path class="cls-3" d="M878.63,1558.53" transform="translate(-136 -608.5)"/><line class="cls-3" x1="750.75" y1="924.18" x2="730.58" y2="917.75"/><line class="cls-3" x1="750.21" y1="926.59" x2="730.04" y2="920.16"/><line class="cls-3" x1="749.67" y1="929" x2="729.5" y2="922.57"/><line class="cls-3" x1="748.71" y1="931.27" x2="728.55" y2="924.85"/><line class="cls-3" x1="748.17" y1="933.68" x2="728.01" y2="927.26"/><line class="cls-3" x1="747.22" y1="935.96" x2="727.06" y2="929.54"/><line class="cls-3" x1="746.68" y1="938.37" x2="726.51" y2="931.95"/><line class="cls-3" x1="745.52" y1="940.58" x2="725.36" y2="934.16"/><line class="cls-3" x1="744.98" y1="942.99" x2="724.82" y2="936.57"/><line class="cls-3" x1="744.03" y1="945.27" x2="723.86" y2="938.84"/><line class="cls-3" x1="743.49" y1="947.68" x2="723.32" y2="941.25"/><line class="cls-2" x1="769.43" y1="939.28" x2="773.48" y2="894.54"/><line class="cls-3" x1="761.56" y1="898.56" x2="784.58" y2="900.75"/><line class="cls-3" x1="758.28" y1="934.4" x2="781.3" y2="936.59"/><line class="cls-3" x1="758.35" y1="931.12" x2="781.37" y2="933.31"/><line class="cls-3" x1="758.42" y1="927.85" x2="781.45" y2="930.04"/><line class="cls-3" x1="758.97" y1="924.62" x2="781.99" y2="926.81"/><line class="cls-3" x1="759.04" y1="921.35" x2="782.06" y2="923.53"/><line class="cls-3" x1="759.59" y1="918.12" x2="782.61" y2="920.31"/><line class="cls-3" x1="759.66" y1="914.84" x2="782.68" y2="917.03"/><line class="cls-3" x1="760.44" y1="911.64" x2="783.46" y2="913.82"/><line class="cls-3" x1="760.51" y1="908.36" x2="783.53" y2="910.55"/><line class="cls-3" x1="761.06" y1="905.13" x2="784.08" y2="907.32"/><line class="cls-3" x1="761.13" y1="901.86" x2="784.15" y2="904.05"/><line class="cls-3" x1="761.56" y1="896.56" x2="784.58" y2="898.75"/><rect class="cls-5" x="281" y="759.5" width="28" height="39"/><rect class="cls-2" x="281" y="759.5" width="28" height="39"/><polyline class="cls-2" points="287 771.5 295 779.5 286.5 788"/><line class="cls-2" x1="295" y1="779.5" x2="274" y2="779.5"/></svg>