<svg id="Layer_1" data-name="Layer 1" xmlns="http://www.w3.org/2000/svg" viewBox="0 0 670.2 2340.97"><defs><style>.cls-1{fill:#faf8f5;}.cls-1,.cls-2,.cls-3,.cls-4{stroke:#000;stroke-miterlimit:10;}.cls-1,.cls-2{stroke-width:6px;}.cls-2,.cls-3,.cls-4{fill:none;}.cls-3{stroke-width:4px;}</style></defs><title>k_våning4.ai</title><polygon class="cls-1" points="3.16 1221.78 309.16 1221.78 335.16 1405.78 353.16 1407.78 353.16 1489.78 371.16 1487.78 320.16 1899.78 279.16 1893.78 230.16 2315.78 248.16 2316.78 550.16 2337.78 667.16 1313.78 649.85 1222.88 484.16 352.78 453.16 357.78 388.16 39.78 281.16 63.78 266.16 3.78 163.16 34.78 66.16 32.78 3.16 1221.78"/><path class="cls-1" d="M256,109" transform="translate(-252.84 -76.22)"/><path class="cls-2" d="M809,1308" transform="translate(-252.84 -76.22)"/><path class="cls-3" d="M649.4,1489" transform="translate(-252.84 -76.22)"/><path class="cls-3" d="M699.43,1496.58" transform="translate(-252.84 -76.22)"/><path class="cls-3" d="M905.18,1519.71" transform="translate(-252.84 -76.22)"/><path class="cls-3" d="M789,1218" transform="translate(-252.84 -76.22)"/><path class="cls-3" d="M742,1218" transform="translate(-252.84 -76.22)"/><path class="cls-3" d="M732,1242" transform="translate(-252.84 -76.22)"/><path class="cls-3" d="M792,1239" transform="translate(-252.84 -76.22)"/><path class="cls-3" d="M794,1272" transform="translate(-252.84 -76.22)"/><path class="cls-3" d="M742,1286" transform="translate(-252.84 -76.22)"/><path class="cls-3" d="M802,1292" transform="translate(-252.84 -76.22)"/><path class="cls-3" d="M757,1308" transform="translate(-252.84 -76.22)"/><path class="cls-4" d="M750.59,1286" transform="translate(-252.84 -76.22)"/><path class="cls-4" d="M735.4,1242" transform="translate(-252.84 -76.22)"/><path class="cls-4" d="M745.49,1285.06" transform="translate(-252.84 -76.22)"/><path class="cls-4" d="M752.07,1283.29" transform="translate(-252.84 -76.22)"/><path class="cls-4" d="M742.5,1241.5" transform="translate(-252.84 -76.22)"/><path class="cls-4" d="M749,1284.11" transform="translate(-252.84 -76.22)"/><path class="cls-4" d="M738.5,1241.5" transform="translate(-252.84 -76.22)"/><path class="cls-4" d="M749,1242" transform="translate(-252.84 -76.22)"/><path class="cls-4" d="M798.8,1293.14" transform="translate(-252.84 -76.22)"/><path class="cls-4" d="M790.09,1273.05" transform="translate(-252.84 -76.22)"/><path class="cls-4" d="M778.32,1239.68" transform="translate(-252.84 -76.22)"/><path class="cls-4" d="M785.84,1239.31" transform="translate(-252.84 -76.22)"/><path class="cls-4" d="M785.84,1218" transform="translate(-252.84 -76.22)"/><path class="cls-4" d="M779.5,1240.5" transform="translate(-252.84 -76.22)"/><path class="cls-4" d="M795.75,1294.22" transform="translate(-252.84 -76.22)"/><path class="cls-4" d="M787.33,1273.8" transform="translate(-252.84 -76.22)"/><path class="cls-4" d="M783.79,1298.47" transform="translate(-252.84 -76.22)"/><path class="cls-4" d="M763.23,1218" transform="translate(-252.84 -76.22)"/><path class="cls-4" d="M754.08,1242.5" transform="translate(-252.84 -76.22)"/><path class="cls-4" d="M762,1280.62" transform="translate(-252.84 -76.22)"/><path class="cls-4" d="M752.07,1242" transform="translate(-252.84 -76.22)"/><path class="cls-4" d="M752.07,1218" transform="translate(-252.84 -76.22)"/><line class="cls-4" x1="496.66" y1="1143.28" x2="496.66" y2="1143.28"/><path class="cls-4" d="M745.49,1218" transform="translate(-252.84 -76.22)"/><path class="cls-4" d="M755.71,1282.31" transform="translate(-252.84 -76.22)"/><path class="cls-4" d="M745.5,1218.5" transform="translate(-252.84 -76.22)"/><path class="cls-3" d="M789.5,1228.5" transform="translate(-252.84 -76.22)"/><path class="cls-3" d="M742.5,1228.5" transform="translate(-252.84 -76.22)"/><path class="cls-3" d="M742.49,1263.42" transform="translate(-252.84 -76.22)"/><path class="cls-4" d="M773,1218" transform="translate(-252.84 -76.22)"/><path class="cls-4" d="M784.49,1274.56" transform="translate(-252.84 -76.22)"/><path class="cls-4" d="M792,1295.56" transform="translate(-252.84 -76.22)"/><path class="cls-4" d="M769.52,1218" transform="translate(-252.84 -76.22)"/><path class="cls-4" d="M781,1275.5" transform="translate(-252.84 -76.22)"/><path class="cls-4" d="M789,1296.62" transform="translate(-252.84 -76.22)"/><path class="cls-4" d="M766.15,1218" transform="translate(-252.84 -76.22)"/><path class="cls-4" d="M778.32,1276.22" transform="translate(-252.84 -76.22)"/><path class="cls-4" d="M785.84,1297.75" transform="translate(-252.84 -76.22)"/><path class="cls-4" d="M772.18,1277.88" transform="translate(-252.84 -76.22)"/><path class="cls-4" d="M781,1299.47" transform="translate(-252.84 -76.22)"/><path class="cls-3" d="M742,1242" transform="translate(-252.84 -76.22)"/><path class="cls-3" d="M742,1286" transform="translate(-252.84 -76.22)"/><polyline class="cls-3" points="537.16 1163.78 480.16 1166.78 480.16 1205.78 537.16 1198.78"/><path class="cls-3" d="M743,1306l47-6c7-2.22,12.74-4.34,17-6,5.77-2.25,8.19-3.41,10.79-5.32A33.69,33.69,0,0,0,826,1280a45.31,45.31,0,0,0,4-9,46.32,46.32,0,0,0,2-18,33.7,33.7,0,0,0-15-26,46.19,46.19,0,0,0-27.5-9.5h-47" transform="translate(-252.84 -76.22)"/><line class="cls-4" x1="530" y1="1141.78" x2="530" y2="1221.53"/><line class="cls-4" x1="526.66" y1="1142.78" x2="526.66" y2="1223.78"/><line class="cls-4" x1="523.3" y1="1142.28" x2="523.3" y2="1224.1"/><polyline class="cls-4" points="519.66 1223.28 520.16 1141.78 516.68 1141.78 516.68 1225.28"/><line class="cls-4" x1="513.31" y1="1141.78" x2="513.31" y2="1225.25"/><line class="cls-4" x1="510.66" y1="1143.28" x2="510.66" y2="1225.28"/><line class="cls-4" x1="507.01" y1="1141.78" x2="507.01" y2="1226.28"/><line class="cls-4" x1="504.16" y1="1141.78" x2="504.16" y2="1226.28"/><line class="cls-4" x1="501.24" y1="1141.78" x2="501.24" y2="1227.61"/><path class="cls-4" d="M752.07,1218" transform="translate(-252.84 -76.22)"/><line class="cls-4" x1="497.75" y1="1141.28" x2="497.75" y2="1228.29"/><path class="cls-4" d="M749,1217.5" transform="translate(-252.84 -76.22)"/><path class="cls-4" d="M745.49,1218" transform="translate(-252.84 -76.22)"/><path class="cls-4" d="M749.5,1217.5" transform="translate(-252.84 -76.22)"/><line class="cls-4" x1="494.37" y1="1141.28" x2="494.37" y2="1228.6"/><path class="cls-3" d="M745,1228" transform="translate(-252.84 -76.22)"/><line class="cls-3" x1="531.16" y1="1152.78" x2="492.16" y2="1152.78"/><line class="cls-3" x1="534.16" y1="1180.78" x2="490.16" y2="1183.78"/><line class="cls-3" x1="533.16" y1="1210.78" x2="490.16" y2="1216.78"/><polyline class="cls-3" points="626.22 1098.76 494.16 1119.78 489.16 1075.78 451.16 1075.78 442.16 1025.78 310.16 1048.78 310.16 1221.78"/><polyline class="cls-3" points="350.16 1406.78 400.16 1412.78 402.16 1471.78 374.79 1471.88 371.79 1487.88"/><polyline class="cls-3" points="310.16 1106.02 353.16 1105.78 353.16 1089.78 373.16 1089.78 373.16 1123.78 396.16 1123.78 396.16 1089.78 416.16 1089.78 453.16 1309.78"/><line class="cls-3" x1="396.16" y1="1123.78" x2="422.16" y2="1123.78"/><polyline class="cls-3" points="373.16 1123.78 353.16 1123.78 353.16 1105.78 373.16 1105.78"/><path class="cls-3" d="M800,1961" transform="translate(-252.84 -76.22)"/><path class="cls-3" d="M848.84,1618.19" transform="translate(-252.84 -76.22)"/><polyline class="cls-3" points="371.6 1743.84 361.16 1829.78 393.16 1867.78 460.49 1875.88 550.95 1888.41 563.16 1791.78"/><path class="cls-3" d="M624.44,1820.06" transform="translate(-252.84 -76.22)"/><path class="cls-3" d="M627.94,1791.19" transform="translate(-252.84 -76.22)"/><polyline class="cls-3" points="382.93 1650.54 375.77 1709.46 375.1 1714.97 373.16 1728.78"/><polyline class="cls-3" points="427.16 1550.78 395.16 1549.78 385.16 1635.78"/><path class="cls-3" d="M721.5,1603.36" transform="translate(-252.84 -76.22)"/><path class="cls-3" d="M763.5,1606.71" transform="translate(-252.84 -76.22)"/><path class="cls-3" d="M849,1586" transform="translate(-252.84 -76.22)"/><path class="cls-3" d="M722,1570" transform="translate(-252.84 -76.22)"/><path class="cls-3" d="M847,1627" transform="translate(-252.84 -76.22)"/><path class="cls-3" d="M716,1917l-3,35Z" transform="translate(-252.84 -76.22)"/><path class="cls-3" d="M646.8,1911.67l71.31,5.55Z" transform="translate(-252.84 -76.22)"/><line class="cls-3" x1="396.16" y1="1835.78" x2="393.16" y2="1867.78"/><line class="cls-3" x1="583.75" y1="1635.42" x2="494.16" y2="1624.78"/><line class="cls-3" x1="580.56" y1="1663.07" x2="490.08" y2="1650.54"/><line class="cls-3" x1="476.02" y1="1749.88" x2="567.59" y2="1761.76"/><path class="cls-3" d="M721,1882" transform="translate(-252.84 -76.22)"/><line class="cls-3" x1="574.89" y1="1705.47" x2="565.16" y2="1780.78"/><line class="cls-3" x1="589.17" y1="1596.02" x2="577.16" y2="1690.78"/><polyline class="cls-3" points="555.76 1851.78 463.16 1840.78 493.71 1624.9 507.32 1529.8 596.16 1540.78 591.16 1579.78"/><line class="cls-3" x1="425.29" y1="1836.98" x2="433.12" y2="1786.01"/><line class="cls-3" x1="470.44" y1="1789.36" x2="367.63" y2="1776.55"/><line class="cls-3" x1="483" y1="1700.58" x2="378.1" y2="1690.28"/><line class="cls-3" x1="495.16" y1="1614.59" x2="388.7" y2="1603"/><polyline class="cls-3" points="426.16 1550.78 452.16 1550.78 444.1 1608.8"/><polyline class="cls-3" points="268.2 1988.22 564.16 2016.78 586.51 2019.69"/><path class="cls-3" d="M710,1981" transform="translate(-252.84 -76.22)"/><path class="cls-3" d="M799,1992" transform="translate(-252.84 -76.22)"/><path class="cls-3" d="M784,1992" transform="translate(-252.84 -76.22)"/><path class="cls-3" d="M850.83,1995.41" transform="translate(-252.84 -76.22)"/><line class="cls-3" x1="562.16" y1="1817.78" x2="469" y2="1805.86"/><polyline class="cls-3" points="322.07 1890.74 318.62 1920.1 430.16 1926.78 431.37 1909.21 449.16 1909.78 451.16 1910.78 448.16 2003.78"/><polyline class="cls-3" points="361.16 1407.78 358.16 1382.78 463.16 1364.78 442.27 1245.03"/><polyline class="cls-3" points="310.16 1048.78 274.16 836.78 334.16 826.78 326.16 782.78 411.16 767.78 448.06 992 453.16 1023.8 442.16 1025.78"/><path class="cls-3" d="M675,912" transform="translate(-252.84 -76.22)"/><path class="cls-3" d="M695,1102" transform="translate(-252.84 -76.22)"/><path class="cls-3" d="M700,1063" transform="translate(-252.84 -76.22)"/><path class="cls-3" d="M649,1182" transform="translate(-252.84 -76.22)"/><path class="cls-3" d="M695,1102" transform="translate(-252.84 -76.22)"/><path class="cls-3" d="M675,1492.86" transform="translate(-252.84 -76.22)"/><line class="cls-3" x1="396.16" y1="1105.78" x2="419.03" y2="1106.84"/><polyline class="cls-3" points="524.45 1531.95 455.71 1522.81 452.16 1550.78"/><path class="cls-3" d="M855,1616" transform="translate(-252.84 -76.22)"/><path class="cls-3" d="M728.86,1500" transform="translate(-252.84 -76.22)"/><path class="cls-3" d="M683.39,1492.7" transform="translate(-252.84 -76.22)"/><path class="cls-3" d="M699,1497" transform="translate(-252.84 -76.22)"/><path class="cls-3" d="M729,1500" transform="translate(-252.84 -76.22)"/><polyline class="cls-3" points="522.5 1357.42 526.16 1322.78 569.16 1317.78 556.16 1234.78 650.16 1222.78"/><polyline class="cls-3" points="468.97 1421.15 515.16 1426.78 520.63 1375.06"/><line class="cls-3" x1="400.16" y1="1412.78" x2="441.31" y2="1417.79"/><line class="cls-3" x1="652.16" y1="1443.78" x2="517.16" y2="1426.78"/><path class="cls-3" d="M773,1457.58" transform="translate(-252.84 -76.22)"/><path class="cls-3" d="M775.86,1428.71" transform="translate(-252.84 -76.22)"/><path class="cls-3" d="M736,2030" transform="translate(-252.84 -76.22)"/><path class="cls-3" d="M779,1994" transform="translate(-252.84 -76.22)"/><path class="cls-3" d="M777.63,1993.77" transform="translate(-252.84 -76.22)"/><path class="cls-3" d="M771.43,1993.15" transform="translate(-252.84 -76.22)"/><line class="cls-3" x1="394.67" y1="1471.81" x2="353.16" y2="1471.81"/><path class="cls-3" d="M796.7,1995.7" transform="translate(-252.84 -76.22)"/><path class="cls-3" d="M736,1990" transform="translate(-252.84 -76.22)"/><path class="cls-1" d="M736,1990" transform="translate(-252.84 -76.22)"/><path class="cls-3" d="M736,1990" transform="translate(-252.84 -76.22)"/><polyline class="cls-3" points="447.42 1909.72 496.16 1916.78 492.16 1949.78 541.16 1956.78 545.16 1923.78 596.98 1929.95"/></svg>