<svg id="Layer_1" data-name="Layer 1" xmlns="http://www.w3.org/2000/svg" viewBox="0 0 1175.13 150.37"><defs><style>.cls-1,.cls-2{fill:#fff;}.cls-2{stroke:#000;}.cls-2,.cls-3{stroke-miterlimit:10;}.cls-3{fill:#c92f1f;stroke:#962d26;stroke-width:6px;}.cls-4{fill:#962d26;}</style></defs><title>loggo-2</title><path class="cls-1" d="M114.09,187.28q-4,1.75-7.29,3.29a71.37,71.37,0,0,1-8.53,3.23,86.28,86.28,0,0,1-9.71,2.38,62.17,62.17,0,0,1-11.53,1,65.88,65.88,0,0,1-21.57-3.34A44,44,0,0,1,38.58,183.4a47.66,47.66,0,0,1-11-17.69q-4-10.72-3.95-24.94a71.12,71.12,0,0,1,3.8-24.1,48.64,48.64,0,0,1,11-17.94A46,46,0,0,1,55.24,87.89,61.22,61.22,0,0,1,77.1,84.15a73.9,73.9,0,0,1,17.54,2.13,93.5,93.5,0,0,1,19.45,7.47V111H113a64.64,64.64,0,0,0-17.87-11,52,52,0,0,0-19-3.44,39.32,39.32,0,0,0-14.9,2.68,32.47,32.47,0,0,0-11.83,8.31,38.11,38.11,0,0,0-7.88,13.88,60.75,60.75,0,0,0-2.82,19.37,56.13,56.13,0,0,0,3.12,19.78,39.5,39.5,0,0,0,8,13.47,31.72,31.72,0,0,0,12,8,40.3,40.3,0,0,0,14.47,2.6,53.19,53.19,0,0,0,19.63-3.59,56.36,56.36,0,0,0,17.13-10.76h1Z" transform="translate(-23.64 -75)"/><path class="cls-1" d="M197.07,195.19H183.38v-8.72q-1.83,1.25-4.95,3.48a34.56,34.56,0,0,1-6,3.55,40.12,40.12,0,0,1-7.91,2.82A42.67,42.67,0,0,1,154,197.46a26.16,26.16,0,0,1-18.75-7.32q-7.69-7.33-7.69-18.68,0-9.3,4-15.05a26.57,26.57,0,0,1,11.39-9,61.62,61.62,0,0,1,17.94-4.47q10.47-1.17,22.49-1.75V139a16.31,16.31,0,0,0-1.65-7.76,12,12,0,0,0-4.73-4.84,19.72,19.72,0,0,0-7-2.27,60.63,60.63,0,0,0-8.57-.58A57.61,57.61,0,0,0,149.32,125a94.7,94.7,0,0,0-13.77,4.13h-.73v-14q4-1.11,11.64-2.42a87.82,87.82,0,0,1,15-1.32,70,70,0,0,1,15.05,1.43,29.08,29.08,0,0,1,11.09,4.87,21.71,21.71,0,0,1,7,8.71,32.24,32.24,0,0,1,2.41,13.26Zm-13.69-20.14V152.27q-6.3.36-14.83,1.1A76.8,76.8,0,0,0,155,155.49a22.25,22.25,0,0,0-9.59,5.24q-3.66,3.56-3.66,9.78,0,7,4.24,10.58t13,3.55a30.77,30.77,0,0,0,13.25-2.82A60,60,0,0,0,183.38,175.05Z" transform="translate(-23.64 -75)"/><path class="cls-1" d="M343,195.19H329.2V148.61q0-5.28-.47-10.18a21.46,21.46,0,0,0-2-7.84,11,11,0,0,0-4.83-4.76q-3.15-1.6-9.08-1.61a25.69,25.69,0,0,0-11.58,2.89,71.27,71.27,0,0,0-11.57,7.36c.15,1.13.27,2.43.37,3.92s.14,3,.14,4.43v52.37H276.39V148.61c0-3.62-.15-7.05-.47-10.29a21.34,21.34,0,0,0-2-7.8,10.88,10.88,0,0,0-4.83-4.73q-3.15-1.58-9.08-1.57A25.62,25.62,0,0,0,248.67,127a68.08,68.08,0,0,0-11.31,7.1v61.09H223.59V113.38h13.77v9.08a60.48,60.48,0,0,1,12.85-8.35,31.83,31.83,0,0,1,13.66-3A27,27,0,0,1,278,114.62a21.71,21.71,0,0,1,8.68,9.74A68.59,68.59,0,0,1,302,114.22a35.34,35.34,0,0,1,14.72-3.11q13.47,0,19.88,8.16T343,142.09Z" transform="translate(-23.64 -75)"/><path class="cls-1" d="M441.48,153.29a55.43,55.43,0,0,1-2.85,18.21,39.86,39.86,0,0,1-8.06,13.95,33.66,33.66,0,0,1-11.39,8.38,33.26,33.26,0,0,1-13.88,3,44.17,44.17,0,0,1-11.53-1.39,48.13,48.13,0,0,1-10.52-4.32v34.28H369.49v-112h13.76V122a53.64,53.64,0,0,1,12.35-7.73,34.93,34.93,0,0,1,14.61-3.11q14.79,0,23,11.17T441.48,153.29Zm-14.21.37q0-14.79-5-22.12t-15.53-7.32a30.25,30.25,0,0,0-11.94,2.56,54.53,54.53,0,0,0-11.5,6.74v46.36a54.47,54.47,0,0,0,10.08,3.59,43.12,43.12,0,0,0,9.55.95q11.5,0,17.95-7.76T427.27,153.66Z" transform="translate(-23.64 -75)"/><path class="cls-1" d="M530.76,195.19H517v-9.08a67.25,67.25,0,0,1-13.33,8.42,33.34,33.34,0,0,1-14.07,2.93q-12.89,0-20.07-7.87t-7.17-23.11v-53.1h13.77V160a83.19,83.19,0,0,0,.58,10.66,19.43,19.43,0,0,0,2.49,7.58,11.76,11.76,0,0,0,5.13,4.68q3.15,1.47,9.15,1.47a29.4,29.4,0,0,0,11.69-2.78A55.07,55.07,0,0,0,517,174.46V113.38h13.76Z" transform="translate(-23.64 -75)"/><path class="cls-1" d="M616.31,171.6q0,11.22-9.26,18.39t-25.31,7.18A60.65,60.65,0,0,1,565.08,195a74.31,74.31,0,0,1-12.71-4.73V174.83h.73a55.32,55.32,0,0,0,14.51,7.8,44.81,44.81,0,0,0,15.3,2.89q9.09,0,14.21-2.93t5.13-9.23q0-4.83-2.78-7.32t-10.7-4.25q-2.92-.66-7.65-1.54c-3.15-.58-6-1.22-8.61-1.9q-10.77-2.86-15.27-8.39a20.8,20.8,0,0,1-4.5-13.58,22.28,22.28,0,0,1,2.08-9.53,23.17,23.17,0,0,1,6.34-8,30.47,30.47,0,0,1,10.44-5.46,46.68,46.68,0,0,1,14.17-2,63.94,63.94,0,0,1,14.83,1.79,56,56,0,0,1,12.49,4.36v14.72h-.73a49.5,49.5,0,0,0-12.82-6.55,44.18,44.18,0,0,0-14.8-2.67A25.86,25.86,0,0,0,572,125.94a9.29,9.29,0,0,0-5.2,8.6q0,5.06,3.15,7.62t10,4.18c2.54.58,5.38,1.17,8.53,1.75s5.78,1.13,7.88,1.62q9.58,2.19,14.79,7.54T616.31,171.6Z" transform="translate(-23.64 -75)"/><path class="cls-1" d="M710.28,195.19H692.12L659.3,159.37l-8.93,8.5v27.32H636.6v-114h13.77v73.1l39.77-40.94H707.5l-38,37.79Z" transform="translate(-23.64 -75)"/><path class="cls-1" d="M788.36,195.19h-13.7v-8.72q-1.83,1.25-4.94,3.48a34.62,34.62,0,0,1-6.05,3.55,39.89,39.89,0,0,1-7.91,2.82,42.62,42.62,0,0,1-10.47,1.14,26.2,26.2,0,0,1-18.75-7.32q-7.69-7.33-7.69-18.68,0-9.3,4-15.05a26.63,26.63,0,0,1,11.39-9,61.61,61.61,0,0,1,17.95-4.47q10.47-1.17,22.48-1.75V139a16.31,16.31,0,0,0-1.65-7.76,12,12,0,0,0-4.72-4.84,19.79,19.79,0,0,0-7-2.27,60.73,60.73,0,0,0-8.57-.58A57.69,57.69,0,0,0,740.6,125a94.7,94.7,0,0,0-13.77,4.13h-.73v-14q4-1.11,11.65-2.42a87.8,87.8,0,0,1,15-1.32,70,70,0,0,1,15,1.43,29.2,29.2,0,0,1,11.1,4.87,21.6,21.6,0,0,1,7,8.71,32.23,32.23,0,0,1,2.42,13.26Zm-13.7-20.14V152.27q-6.3.36-14.83,1.1a76.67,76.67,0,0,0-13.51,2.12,22.23,22.23,0,0,0-9.6,5.24q-3.66,3.56-3.66,9.78,0,7,4.25,10.58t13,3.55a30.82,30.82,0,0,0,13.26-2.82A60.22,60.22,0,0,0,774.66,175.05Z" transform="translate(-23.64 -75)"/><path class="cls-1" d="M865.92,128.39h-.73a50.07,50.07,0,0,0-6-1.06,61.43,61.43,0,0,0-6.85-.33,28.3,28.3,0,0,0-12.3,2.82,56.45,56.45,0,0,0-11.43,7.29v58.08H814.87V113.38h13.77v12.08a68,68,0,0,1,14.47-9.34,31.51,31.51,0,0,1,12.78-2.74c2.39,0,4.12.06,5.2.18s2.68.36,4.83.7Z" transform="translate(-23.64 -75)"/><path class="cls-1" d="M921.37,194.46a76.27,76.27,0,0,1-8.46,1.68,58.06,58.06,0,0,1-8.17.66q-12.53,0-19-6.74t-6.52-21.6V125h-9.3V113.38h9.3V89.87H893v23.51h28.42V125H893v37.28c0,4.3.09,7.65.29,10.07a16.42,16.42,0,0,0,2,6.78,9.84,9.84,0,0,0,4.43,4.28c1.88.9,4.75,1.36,8.61,1.36a26.94,26.94,0,0,0,7-1,49.25,49.25,0,0,0,5.27-1.65h.74Z" transform="translate(-23.64 -75)"/><path class="cls-1" d="M1001.57,195.19h-13.7v-8.72q-1.83,1.25-4.94,3.48a35,35,0,0,1-6,3.55,39.89,39.89,0,0,1-7.91,2.82,42.67,42.67,0,0,1-10.47,1.14,26.2,26.2,0,0,1-18.75-7.32q-7.69-7.33-7.69-18.68,0-9.3,4-15.05a26.63,26.63,0,0,1,11.39-9,61.62,61.62,0,0,1,17.94-4.47q10.49-1.17,22.49-1.75V139a16.31,16.31,0,0,0-1.65-7.76,12.07,12.07,0,0,0-4.72-4.84,19.86,19.86,0,0,0-7-2.27,60.84,60.84,0,0,0-8.57-.58A57.62,57.62,0,0,0,953.81,125,94.7,94.7,0,0,0,940,129.12h-.73v-14q4-1.11,11.65-2.42a87.71,87.71,0,0,1,15-1.32,70,70,0,0,1,15,1.43,29.2,29.2,0,0,1,11.1,4.87,21.69,21.69,0,0,1,7,8.71,32.23,32.23,0,0,1,2.42,13.26Zm-13.7-20.14V152.27q-6.3.36-14.83,1.1a76.8,76.8,0,0,0-13.52,2.12,22.25,22.25,0,0,0-9.59,5.24q-3.66,3.56-3.66,9.78,0,7,4.25,10.58t13,3.55a30.85,30.85,0,0,0,13.26-2.82A60.22,60.22,0,0,0,987.87,175.05Z" transform="translate(-23.64 -75)"/><path class="cls-1" d="M1096.49,195.19h-13.77V148.61a80.24,80.24,0,0,0-.66-10.59,19.35,19.35,0,0,0-2.42-7.72,11.15,11.15,0,0,0-5.27-4.58,22.63,22.63,0,0,0-8.94-1.5,28.66,28.66,0,0,0-11.79,2.78,60.36,60.36,0,0,0-11.79,7.1v61.09h-13.77V113.38h13.77v9.08a55.91,55.91,0,0,1,13.33-8.35,35,35,0,0,1,14.13-3q13.26,0,20.22,8t7,23Z" transform="translate(-23.64 -75)"/><path class="cls-2" d="M967.32,608.58" transform="translate(-23.64 -75)"/><path class="cls-2" d="M1108.32,129.3" transform="translate(-23.64 -75)"/><path class="cls-3" d="M1155.55,78c51.93,0,40.8,50.84,35.18,67.2-8.24,24-35.86,49.5-35.86,49.5s-28.3-25-36.45-49.5C1112.67,128.43,1103.75,78,1155.55,78Z" transform="translate(-23.64 -75)"/><circle class="cls-4" cx="1131.22" cy="43.01" r="19.35"/></svg>