<svg id="Layer_1" data-name="Layer 1" xmlns="http://www.w3.org/2000/svg" viewBox="0 0 1125 1288.5"><defs><style>.cls-1{fill:#bfe8e8;}.cls-2{fill:#cf7e54;}.cls-3{fill:none;}.cls-24,.cls-3{stroke:#000;}.cls-17,.cls-18,.cls-21,.cls-22,.cls-23,.cls-24,.cls-3{stroke-miterlimit:10;}.cls-4{fill:#5e5047;}.cls-5{fill:#636363;}.cls-6{fill:#b2b2b2;}.cls-7{fill:#faf8f5;}.cls-8{fill:#f9f0c8;}.cls-9{fill:#455054;}.cls-10{fill:#83979b;}.cls-11{fill:#d6d6d6;}.cls-12{fill:#c6c6c6;}.cls-13{fill:#966442;}.cls-14{fill:#515151;}.cls-15{fill:#a4a5a5;}.cls-16{fill:#dbd4bd;}.cls-17{fill:#682f2a;stroke:#adadad;}.cls-18{stroke:#fff;}.cls-19,.cls-22{fill:#fff;}.cls-20{fill:#ec6610;}.cls-21{stroke:#ffce00;}.cls-22{stroke:#c63526;stroke-width:2px;}.cls-23{fill:#3a3832;stroke:#d8b830;}.cls-24{fill:#748275;}</style></defs><title>overview2.0</title><polygon class="cls-1" points="0.5 1084.08 205.5 1084 492.5 976 1125 976 1125 729.92 459.5 749 192.5 803 0 800.75 0.5 1084.08"/><polygon class="cls-2" points="798.5 707 184.5 707 184.5 526 471.5 526 471.5 421 487.5 421 487.5 436 501.5 436 501.5 421 517.5 421 517.5 436 531.5 436 531.5 421 546.5 421 546.5 437 560.5 437 560.5 421 575.5 421 577.5 526 798.5 526 798.5 707"/><path class="cls-3" d="M709.5,1537.5" transform="translate(0 -1011.5)"/><path class="cls-3" d="M471.5,1537.5" transform="translate(0 -1011.5)"/><rect class="cls-4" x="1105" y="706.5" width="20" height="276"/><polyline class="cls-5" points="1125 729.5 1031.27 671.18 859 564 860 460.5 549.5 374 0.5 381.57 0.5 267.84 585.5 268 846 332.5 903 241.5 1125 206.5"/><polyline class="cls-6" points="505.59 747.68 544 838.5 544 870.5 524.79 976 562.5 976 581 876.5 581 830.5 553.55 746.3"/><rect class="cls-7" x="668.19" y="1142.08" width="299.81" height="146.42"/><rect class="cls-2" x="313.76" y="1107.22" width="354.43" height="181.28"/><rect class="cls-8" x="43" y="1160.67" width="270.76" height="127.83"/><polygon class="cls-9" points="668.19 1127.51 668.19 1142.08 968 1142.08 946.71 1127.5 668.19 1127.51"/><polygon class="cls-9" points="43 1160.5 84 1119.5 313.76 1119.5 313.76 1160.5 43 1160.5"/><polygon class="cls-9" points="645 1084.5 668 1107.5 314 1107.5 336.5 1085 645 1084.5"/><rect class="cls-10" x="335" y="1210.5" width="31" height="55"/><rect class="cls-10" x="382" y="1210.5" width="31" height="55"/><rect class="cls-10" x="429" y="1210.5" width="31" height="55"/><rect class="cls-10" x="476" y="1210.5" width="31" height="55"/><rect class="cls-10" x="524" y="1210.5" width="31" height="55"/><rect class="cls-10" x="571" y="1210.5" width="31" height="55"/><rect class="cls-10" x="616" y="1210.5" width="31" height="55"/><rect class="cls-10" x="336" y="1137.5" width="31" height="55"/><rect class="cls-10" x="383" y="1137.5" width="31" height="55"/><rect class="cls-10" x="430" y="1137.5" width="31" height="55"/><rect class="cls-10" x="477" y="1137.5" width="31" height="55"/><rect class="cls-10" x="525" y="1137.5" width="31" height="55"/><rect class="cls-10" x="572" y="1137.5" width="31" height="55"/><rect class="cls-10" x="617" y="1137.5" width="31" height="55"/><rect class="cls-10" x="695" y="1221.12" width="24.46" height="37.38"/><rect class="cls-10" x="732.09" y="1221.12" width="24.46" height="37.38"/><rect class="cls-10" x="769.17" y="1221.12" width="24.46" height="37.38"/><rect class="cls-10" x="806.26" y="1221.12" width="24.46" height="37.38"/><rect class="cls-10" x="844.13" y="1221.12" width="24.46" height="37.38"/><rect class="cls-10" x="881.22" y="1221.12" width="24.46" height="37.38"/><rect class="cls-10" x="916.73" y="1221.12" width="24.46" height="37.38"/><rect class="cls-10" x="695.79" y="1171.5" width="24.46" height="37.38"/><rect class="cls-10" x="732.88" y="1171.5" width="24.46" height="37.38"/><rect class="cls-10" x="769.96" y="1171.5" width="24.46" height="37.38"/><rect class="cls-10" x="807.05" y="1171.5" width="24.46" height="37.38"/><rect class="cls-10" x="844.92" y="1171.5" width="24.46" height="37.38"/><rect class="cls-10" x="882.01" y="1171.5" width="24.46" height="37.38"/><rect class="cls-10" x="917.52" y="1171.5" width="24.46" height="37.38"/><rect class="cls-10" x="67" y="1172.5" width="31" height="50"/><rect class="cls-10" x="114" y="1172.5" width="31" height="50"/><rect class="cls-10" x="161" y="1172.5" width="31" height="50"/><rect class="cls-10" x="208" y="1172.5" width="31" height="50"/><rect class="cls-10" x="256" y="1172.5" width="31" height="50"/><polygon class="cls-9" points="548 18.09 581 56.88 195 56.88 228.5 17.5 548 18.09"/><rect class="cls-8" x="195" y="56.5" width="386" height="120"/><rect class="cls-11" x="195" y="176.5" width="130" height="60"/><rect class="cls-11" x="451" y="176.5" width="130" height="60"/><rect class="cls-10" x="195" y="181.5" width="62.86" height="48"/><rect class="cls-10" x="262.14" y="181.5" width="62.86" height="48"/><rect class="cls-10" x="451" y="181.5" width="62.86" height="48"/><rect class="cls-10" x="518.14" y="181.5" width="62.86" height="48"/><rect class="cls-11" x="325" y="176.5" width="126" height="5"/><rect class="cls-10" x="391.4" y="124.34" width="57.57" height="39.16"/><rect class="cls-10" x="391.4" y="70.5" width="57.57" height="39.16"/><rect class="cls-10" x="328" y="124.34" width="57.57" height="39.16"/><rect class="cls-10" x="328" y="70.5" width="57.57" height="39.16"/><rect class="cls-10" x="518.4" y="124.34" width="57.57" height="39.16"/><rect class="cls-10" x="518.4" y="70.5" width="57.57" height="39.16"/><rect class="cls-10" x="455" y="124.34" width="57.57" height="39.16"/><rect class="cls-10" x="455" y="70.5" width="57.57" height="39.16"/><rect class="cls-10" x="265.4" y="124.34" width="57.57" height="39.16"/><rect class="cls-10" x="265.4" y="70.5" width="57.57" height="39.16"/><rect class="cls-10" x="202" y="124.34" width="57.57" height="39.16"/><rect class="cls-10" x="202" y="70.5" width="57.57" height="39.16"/><polygon class="cls-2" points="581 124.34 612.68 124.34 659.62 110 677.61 110 677.61 71 658.84 71 611.9 84 581 84 581 124.34"/><polygon class="cls-10" points="581 113.5 612.29 113.5 660.01 99.5 677.61 99.5 678 70.5 659.23 70.5 611.51 83.5 581 83.5 581 113.5"/><rect class="cls-9" x="677.5" y="188" width="188" height="47"/><rect class="cls-12" x="677.5" width="188" height="188"/><rect class="cls-13" x="684.5" y="18" width="33" height="170"/><rect class="cls-10" x="690" y="64.5" width="21" height="31"/><rect class="cls-10" x="690" y="25.5" width="21" height="31"/><rect class="cls-10" x="690" y="103.5" width="21" height="31"/><rect class="cls-10" x="690" y="142.5" width="21" height="31"/><rect class="cls-10" x="733" y="64.5" width="21" height="31"/><rect class="cls-10" x="733" y="25.5" width="21" height="31"/><rect class="cls-10" x="733" y="103.5" width="21" height="31"/><rect class="cls-10" x="733" y="142.5" width="21" height="31"/><rect class="cls-10" x="764" y="64.5" width="21" height="31"/><rect class="cls-10" x="764" y="25.5" width="21" height="31"/><rect class="cls-10" x="764" y="103.5" width="21" height="31"/><rect class="cls-10" x="764" y="142.5" width="21" height="31"/><rect class="cls-10" x="794" y="64.5" width="21" height="31"/><rect class="cls-10" x="794" y="25.5" width="21" height="31"/><rect class="cls-10" x="794" y="103.5" width="21" height="31"/><rect class="cls-10" x="794" y="142.5" width="21" height="31"/><rect class="cls-10" x="824" y="64.5" width="21" height="31"/><rect class="cls-10" x="824" y="25.5" width="21" height="31"/><rect class="cls-10" x="824" y="103.5" width="21" height="31"/><rect class="cls-10" x="824" y="142.5" width="21" height="31"/><ellipse class="cls-14" cx="980" cy="301.78" rx="82" ry="38.72"/><ellipse class="cls-15" cx="979.82" cy="301.02" rx="51.45" ry="24.3"/><path class="cls-1" d="M976.4,1313s4.06-39.68,2.26-48.69-13.44-35.15-4.85-19.93,5.81-41.19,10.66-21.25-7.55,42.69-.09,33.24S976.4,1313,976.4,1313Z" transform="translate(0 -1011.5)"/><ellipse class="cls-1" cx="972.41" cy="210.67" rx="1.52" ry="5.31"/><ellipse class="cls-1" cx="989.87" cy="235.72" rx="1.52" ry="3.8"/><path class="cls-1" d="M999.25,1301.91s-1.2-35.43,1.18-30.5,3.56-25.56,4.23-19.34S999.25,1301.91,999.25,1301.91Z" transform="translate(0 -1011.5)"/><path class="cls-1" d="M959.75,1301.92c2.22-19.7-3-47.13-3-47.13s-2,7.56-.18,10.63-1.34,6.82-1.1,9.09C957.93,1297.34,959.75,1301.92,959.75,1301.92Z" transform="translate(0 -1011.5)"/><path class="cls-1" d="M953,1316.42s.84-35.71-2-30.53-4.82-25.36-5.53-19.05S953,1316.42,953,1316.42Z" transform="translate(0 -1011.5)"/><path class="cls-1" d="M1003.36,1317.14c-1.23-19.76,3.51-47,3.51-47s1.38,7.61-.12,10.62.87,6.86.62,9.12C1004.89,1312.6,1003.36,1317.14,1003.36,1317.14Z" transform="translate(0 -1011.5)"/><ellipse class="cls-1" cx="970.5" cy="275.5" rx="1" ry="2.5"/><ellipse class="cls-1" cx="995.94" cy="253.94" rx="1.52" ry="3.8"/><ellipse class="cls-1" cx="951.15" cy="253.19" rx="1.52" ry="3.8"/><circle class="cls-10" cx="498.25" cy="468.25" r="12.75"/><circle class="cls-10" cx="548.5" cy="468.25" r="12.75"/><rect class="cls-10" x="200" y="631.5" width="31" height="55"/><rect class="cls-10" x="247" y="631.5" width="31" height="55"/><rect class="cls-10" x="294" y="631.5" width="31" height="55"/><rect class="cls-10" x="341" y="631.5" width="31" height="55"/><rect class="cls-10" x="389" y="631.5" width="31" height="55"/><rect class="cls-10" x="201" y="558.5" width="31" height="55"/><rect class="cls-10" x="248" y="558.5" width="31" height="55"/><rect class="cls-10" x="295" y="558.5" width="31" height="55"/><rect class="cls-10" x="342" y="558.5" width="31" height="55"/><rect class="cls-10" x="390" y="558.5" width="31" height="55"/><rect class="cls-10" x="624" y="629.5" width="31" height="55"/><rect class="cls-10" x="671" y="629.5" width="31" height="55"/><rect class="cls-10" x="719" y="629.5" width="31" height="55"/><rect class="cls-10" x="625" y="556.5" width="31" height="55"/><rect class="cls-10" x="672" y="556.5" width="31" height="55"/><rect class="cls-10" x="720" y="556.5" width="31" height="55"/><rect class="cls-10" x="514.98" y="568.5" width="16.33" height="42"/><path class="cls-10" d="M539,1622v-42s37-1,37,43Z" transform="translate(0 -1011.5)"/><path class="cls-10" d="M506.38,1622v-42S472,1579,472,1623Z" transform="translate(0 -1011.5)"/><rect class="cls-10" x="472" y="629.5" width="35.82" height="55"/><rect class="cls-10" x="540.18" y="629.5" width="35.82" height="55"/><rect class="cls-16" x="567.38" y="1312.52" width="70" height="56" transform="translate(-851.58 543.13) rotate(-74.18)"/><polygon class="cls-17" points="663.58 306.93 675.64 319.18 671.06 335.75 654.42 340.07 642.36 327.82 646.94 311.25 663.58 306.93"/><rect class="cls-18" x="632.52" y="1359.63" width="29" height="29" transform="translate(-851.45 610.53) rotate(-74.18)"/><rect class="cls-19" x="671.81" y="1351.15" width="35.17" height="28.14" transform="translate(-812.05 644.83) rotate(-74.18)"/><rect class="cls-20" x="682.66" y="1364.98" width="9.89" height="9.89" transform="translate(-817.88 646.53) rotate(-74.18)"/><rect class="cls-5" x="685.67" y="1353.99" width="9.89" height="9.89" transform="translate(-805.12 641.42) rotate(-74.18)"/><circle class="cls-21" cx="730.5" cy="363" r="17.5"/><rect class="cls-16" x="745.53" y="1398" width="22.2" height="17.76" transform="translate(-803.23 739.81) rotate(-74.18)"/><rect class="cls-22" x="746.1" y="1360.17" width="42.61" height="17.76" transform="translate(-759 722.67) rotate(-74.18)"/><polygon class="cls-23" points="781.46 376.43 813.65 409.15 825.89 364.91 781.46 376.43"/><path class="cls-24" d="M995.94,1745.12" transform="translate(0 -1011.5)"/></svg>