<svg xmlns="http://www.w3.org/2000/svg" viewBox="0 0 988 762.01"><defs><style>.cls-1,.cls-3{fill:none;}.cls-1,.cls-2,.cls-3,.cls-4{stroke:#000;stroke-miterlimit:10;}.cls-1,.cls-4{stroke-width:4px;}.cls-2{fill:#faf8f5;stroke-width:6px;}.cls-4{fill:#fff;}</style></defs><title>TP3</title><g id="Layer_1" data-name="Layer 1"><path class="cls-1" d="M747.5,1356.5" transform="translate(-85.5 -718.49)"/><polygon class="cls-2" points="3 3.01 3 162.01 163.5 162.01 159 544.01 168 544.01 168 629.01 177 629.01 177 759.01 267 759.01 267 746.01 495.94 746.01 495.94 638.01 434 638.01 434 549.01 434 290.01 527 290.01 532.5 250.51 718.5 254.51 719 255.01 719 638.01 662 638.01 662 746.01 851 746.01 851 759.01 985 759.01 985 151.01 972 151.01 972 61.01 118.5 61.01 118.5 3.51 3 3.01"/><line class="cls-1" x1="719" y1="638.01" x2="770" y2="638.01"/><polyline class="cls-1" points="788 638.01 807 638.01 807 746.01"/><polyline class="cls-1" points="876 525.01 947 525.01 947 638.01 877 638.01 985 638.01 985 525.01 947 525.01"/><path class="cls-1" d="M892.5,1356.5" transform="translate(-85.5 -718.49)"/><polyline class="cls-1" points="828 525.01 876 525.01 876 564.01"/><path class="cls-1" d="M892.5,967.5h-10S866,995,866,1109c0,75,16.5,134.5,16.5,134.5h10" transform="translate(-85.5 -718.49)"/><polyline class="cls-1" points="828 249.01 960 249.01 952 249.01 952 225.01"/><line class="cls-1" x1="434" y1="638.01" x2="384" y2="638.01"/><polyline class="cls-1" points="364 638.01 349 638.01 349 746.01"/><polyline class="cls-1" points="267 746.01 237 746.01 237 662.01 322 662.01"/><polyline class="cls-1" points="177 629.01 271 629.01 271 587.01 198 587.01 198 499.51"/><polyline class="cls-1" points="159 499.01 271 499.01 271 552.01"/><line class="cls-1" x1="312" y1="499.01" x2="271" y2="499.01"/><path class="cls-1" d="M416.5,991.5h12S442,1046,442,1107c0,64-13.5,110.5-13.5,110.5h-12" transform="translate(-85.5 -718.49)"/><polyline class="cls-1" points="163.5 273.51 177 273.01 177 228.64 162.5 228.51"/><polyline class="cls-1" points="292 273.01 292 229.01 198 229.01 198 273.01 312 273.01"/><line class="cls-1" x1="951" y1="209.01" x2="951" y2="151.01"/><polyline class="cls-1" points="876 601.01 876 619.51 876 638.01 827.5 638.01"/><polyline class="cls-1" points="876 552.01 946.5 552.51 945.5 619.51 876 619.01"/><polyline class="cls-1" points="229.91 499.01 229.91 544.51 271 544.51"/><path class="cls-1" d="M492,1920" transform="translate(-85.5 -718.49)"/><line class="cls-1" x1="896" y1="552.01" x2="896" y2="525.01"/><line class="cls-1" x1="922.26" y1="552.01" x2="922.26" y2="525.51"/><line class="cls-1" x1="922.26" y1="619.35" x2="922.26" y2="638.01"/><line class="cls-1" x1="896" y1="619.16" x2="896" y2="638.01"/><line class="cls-1" x1="947.53" y1="588.78" x2="985" y2="588.78"/><path class="cls-1" d="M620,973" transform="translate(-85.5 -718.49)"/><path class="cls-1" d="M805,973" transform="translate(-85.5 -718.49)"/><line class="cls-1" x1="198.5" y1="587.51" x2="168" y2="587.51"/><line class="cls-1" x1="198" y1="570.42" x2="168" y2="570.42"/><line class="cls-1" x1="159.5" y1="543.51" x2="198" y2="543.51"/><line class="cls-1" x1="198" y1="524.11" x2="159.5" y2="524.11"/><line class="cls-1" x1="951" y1="186.63" x2="985" y2="186.63"/><line class="cls-1" x1="985" y1="249.01" x2="978.5" y2="249.01"/><polyline class="cls-1" points="862.5 151.01 899.32 151.01 899.32 61.01"/><line class="cls-1" x1="901.5" y1="199.51" x2="862.07" y2="199.56"/><line class="cls-3" x1="864.95" y1="249.01" x2="864.95" y2="151.01"/><line class="cls-3" x1="898" y1="248.51" x2="898" y2="150.51"/><line class="cls-3" x1="895" y1="249.51" x2="895" y2="151.51"/><line class="cls-3" x1="892" y1="250.51" x2="892" y2="152.51"/><line class="cls-3" x1="889" y1="249.51" x2="889" y2="151.51"/><line class="cls-3" x1="886" y1="250.51" x2="886" y2="152.51"/><line class="cls-3" x1="883" y1="249.51" x2="883" y2="151.51"/><line class="cls-3" x1="880" y1="250.51" x2="880" y2="152.51"/><line class="cls-3" x1="877" y1="248.51" x2="877" y2="150.51"/><line class="cls-3" x1="874" y1="249.51" x2="874" y2="151.51"/><line class="cls-3" x1="871" y1="248.51" x2="871" y2="150.51"/><line class="cls-3" x1="868" y1="249.51" x2="868" y2="151.51"/><line class="cls-1" x1="274.77" y1="171.4" x2="235.33" y2="171.45"/><line class="cls-3" x1="238.22" y1="227.87" x2="238.22" y2="111.09"/><line class="cls-3" x1="271.27" y1="113.51" x2="271.27" y2="227.29"/><line class="cls-3" x1="268.27" y1="228.45" x2="268.27" y2="111.67"/><line class="cls-3" x1="265.27" y1="229.61" x2="265.27" y2="112.83"/><line class="cls-3" x1="262.27" y1="228.45" x2="262.27" y2="111.67"/><line class="cls-3" x1="259.27" y1="229.61" x2="259.27" y2="112.83"/><line class="cls-3" x1="256.27" y1="228.45" x2="256.27" y2="111.67"/><line class="cls-3" x1="253.27" y1="229.61" x2="253.27" y2="112.83"/><line class="cls-3" x1="250.27" y1="227.29" x2="250.27" y2="113.51"/><line class="cls-3" x1="247.27" y1="228.45" x2="247.27" y2="111.67"/><line class="cls-3" x1="244.27" y1="227.29" x2="244.27" y2="113.51"/><line class="cls-3" x1="241.27" y1="228.45" x2="241.27" y2="111.67"/><line class="cls-1" x1="272.5" y1="111.51" x2="160.5" y2="111.51"/><path class="cls-3" d="M981.5,779.5" transform="translate(-85.5 -718.49)"/><line class="cls-1" x1="975.7" y1="151.01" x2="896.5" y2="151.01"/><polyline class="cls-1" points="173.98 111.51 118.5 111.51 118.5 87.51 49.5 87.51 49.5 162.01"/><line class="cls-1" x1="163.5" y1="162.51" x2="163.5" y2="111.51"/><line class="cls-1" x1="434.5" y1="290.51" x2="434.5" y2="159.51"/><polyline class="cls-1" points="479.5 159.51 479.5 243.51 485.5 243.51 498.5 172.51"/><line class="cls-1" x1="457.5" y1="155.51" x2="457.5" y2="245.51"/><line class="cls-1" x1="506.5" y1="248.51" x2="521.5" y2="176.51"/><line class="cls-3" x1="434.89" y1="161.77" x2="479.5" y2="161.77"/><line class="cls-3" x1="478.58" y1="194.82" x2="435.11" y2="194.82"/><line class="cls-3" x1="434.67" y1="191.82" x2="479.28" y2="191.82"/><line class="cls-3" x1="434.22" y1="188.82" x2="478.83" y2="188.82"/><line class="cls-3" x1="434.67" y1="185.82" x2="479.28" y2="185.82"/><line class="cls-3" x1="434.22" y1="182.82" x2="478.83" y2="182.82"/><line class="cls-3" x1="434.67" y1="179.82" x2="479.28" y2="179.82"/><line class="cls-3" x1="434.22" y1="176.82" x2="478.83" y2="176.82"/><line class="cls-3" x1="435.11" y1="173.82" x2="478.58" y2="173.82"/><line class="cls-3" x1="434.67" y1="170.82" x2="479.28" y2="170.82"/><line class="cls-3" x1="435.11" y1="167.82" x2="478.58" y2="167.82"/><line class="cls-3" x1="434.67" y1="164.82" x2="479.28" y2="164.82"/><line class="cls-3" x1="435.6" y1="197.28" x2="480.21" y2="197.28"/><line class="cls-3" x1="479.29" y1="230.33" x2="435.82" y2="230.33"/><line class="cls-3" x1="435.38" y1="227.33" x2="479.99" y2="227.33"/><line class="cls-3" x1="434.93" y1="224.33" x2="479.54" y2="224.33"/><line class="cls-3" x1="435.38" y1="221.33" x2="479.99" y2="221.33"/><line class="cls-3" x1="434.93" y1="218.33" x2="479.54" y2="218.33"/><line class="cls-3" x1="435.38" y1="215.33" x2="479.99" y2="215.33"/><line class="cls-3" x1="434.93" y1="212.33" x2="479.54" y2="212.33"/><line class="cls-3" x1="435.82" y1="209.33" x2="479.29" y2="209.33"/><line class="cls-3" x1="435.38" y1="206.33" x2="479.99" y2="206.33"/><line class="cls-3" x1="435.82" y1="203.33" x2="479.29" y2="203.33"/><line class="cls-3" x1="435.38" y1="200.33" x2="479.99" y2="200.33"/><line class="cls-3" x1="435.6" y1="233.28" x2="480.21" y2="233.28"/><line class="cls-3" x1="435.38" y1="242.33" x2="479.99" y2="242.33"/><line class="cls-3" x1="435.82" y1="239.33" x2="479.29" y2="239.33"/><line class="cls-3" x1="435.38" y1="236.33" x2="479.99" y2="236.33"/><line class="cls-3" x1="538.73" y1="209.16" x2="493.85" y2="200.82"/><line class="cls-3" x1="493.94" y1="197.79" x2="540" y2="206.34"/><line class="cls-3" x1="494.03" y1="194.75" x2="540.09" y2="203.31"/><line class="cls-3" x1="495.04" y1="191.89" x2="541.1" y2="200.45"/><line class="cls-3" x1="495.13" y1="188.85" x2="541.19" y2="197.41"/><line class="cls-3" x1="496.13" y1="185.99" x2="542.19" y2="194.55"/><line class="cls-3" x1="496.22" y1="182.96" x2="542.28" y2="191.51"/><line class="cls-3" x1="497.69" y1="180.18" x2="542.56" y2="188.51"/><line class="cls-3" x1="497.78" y1="177.14" x2="543.84" y2="185.7"/><line class="cls-3" x1="543.66" y1="182.61" x2="498.78" y2="174.28"/><line class="cls-3" x1="493.91" y1="203.34" x2="539.97" y2="211.89"/><line class="cls-3" x1="532.97" y1="244.21" x2="488.1" y2="235.87"/><line class="cls-3" x1="488.19" y1="232.84" x2="534.25" y2="241.39"/><line class="cls-3" x1="488.28" y1="229.8" x2="534.34" y2="238.36"/><line class="cls-3" x1="489.28" y1="226.94" x2="535.34" y2="235.5"/><line class="cls-3" x1="489.37" y1="223.9" x2="535.43" y2="232.46"/><line class="cls-3" x1="490.38" y1="221.04" x2="536.44" y2="229.6"/><line class="cls-3" x1="490.47" y1="218" x2="536.53" y2="226.56"/><line class="cls-3" x1="491.93" y1="215.23" x2="536.81" y2="223.56"/><line class="cls-3" x1="492.02" y1="212.19" x2="538.08" y2="220.75"/><line class="cls-3" x1="493.03" y1="209.33" x2="537.91" y2="217.66"/><line class="cls-3" x1="493.12" y1="206.29" x2="539.18" y2="214.85"/><line class="cls-3" x1="487.33" y1="238.73" x2="533.39" y2="247.29"/><line class="cls-3" x1="486.54" y1="241.69" x2="532.6" y2="250.24"/><line class="cls-1" x1="911.5" y1="717.51" x2="911.5" y2="638.01"/><polyline class="cls-1" points="936.5 717.51 936.5 674.51 954.5 674.51 954.5 717.51"/><line class="cls-1" x1="923.5" y1="717.51" x2="923.5" y2="669.51"/><line class="cls-1" x1="969.5" y1="669.51" x2="969.5" y2="717.51"/><line class="cls-3" x1="913.26" y1="637.93" x2="935.15" y2="637.93"/><line class="cls-3" x1="913.61" y1="673.44" x2="935.5" y2="673.44"/><line class="cls-3" x1="935.05" y1="706.49" x2="913.72" y2="706.49"/><line class="cls-3" x1="913.5" y1="703.49" x2="935.39" y2="703.49"/><line class="cls-3" x1="913.28" y1="700.49" x2="935.17" y2="700.49"/><line class="cls-3" x1="913.5" y1="697.49" x2="935.39" y2="697.49"/><line class="cls-3" x1="913.28" y1="694.49" x2="935.17" y2="694.49"/><line class="cls-3" x1="913.5" y1="691.49" x2="935.39" y2="691.49"/><line class="cls-3" x1="913.28" y1="688.49" x2="935.17" y2="688.49"/><line class="cls-3" x1="913.72" y1="685.49" x2="935.05" y2="685.49"/><line class="cls-3" x1="913.5" y1="682.49" x2="935.39" y2="682.49"/><line class="cls-3" x1="913.72" y1="679.49" x2="935.05" y2="679.49"/><line class="cls-3" x1="913.5" y1="676.49" x2="935.39" y2="676.49"/><line class="cls-3" x1="913.61" y1="709.44" x2="935.5" y2="709.44"/><line class="cls-3" x1="913.72" y1="715.49" x2="935.05" y2="715.49"/><line class="cls-3" x1="913.5" y1="712.49" x2="935.39" y2="712.49"/><line class="cls-3" x1="955.27" y1="673.18" x2="985.5" y2="673.18"/><line class="cls-3" x1="984.87" y1="706.24" x2="955.42" y2="706.24"/><line class="cls-3" x1="955.12" y1="703.24" x2="985.35" y2="703.24"/><line class="cls-3" x1="954.82" y1="700.24" x2="985.05" y2="700.24"/><line class="cls-3" x1="955.12" y1="697.24" x2="985.35" y2="697.24"/><line class="cls-3" x1="954.82" y1="694.24" x2="985.05" y2="694.24"/><line class="cls-3" x1="955.12" y1="691.24" x2="985.35" y2="691.24"/><line class="cls-3" x1="954.82" y1="688.24" x2="985.05" y2="688.24"/><line class="cls-3" x1="955.42" y1="685.24" x2="984.87" y2="685.24"/><line class="cls-3" x1="955.12" y1="682.24" x2="985.35" y2="682.24"/><line class="cls-3" x1="955.42" y1="679.24" x2="984.87" y2="679.24"/><line class="cls-3" x1="955.12" y1="676.24" x2="985.35" y2="676.24"/><line class="cls-3" x1="955.27" y1="709.18" x2="985.5" y2="709.18"/><line class="cls-3" x1="955.42" y1="715.24" x2="984.87" y2="715.24"/><line class="cls-3" x1="955.12" y1="712.24" x2="985.35" y2="712.24"/><line class="cls-1" x1="207.5" y1="661.51" x2="207.5" y2="727.51"/><line class="cls-1" x1="220.5" y1="658.51" x2="220.5" y2="730.51"/><line class="cls-1" x1="193.5" y1="728.51" x2="193.5" y2="665.51"/><line class="cls-3" x1="209.03" y1="663.83" x2="237.5" y2="663.83"/><line class="cls-3" x1="236.91" y1="696.88" x2="209.17" y2="696.88"/><line class="cls-3" x1="208.88" y1="693.88" x2="237.36" y2="693.88"/><line class="cls-3" x1="208.6" y1="690.88" x2="237.08" y2="690.88"/><line class="cls-3" x1="208.88" y1="687.88" x2="237.36" y2="687.88"/><line class="cls-3" x1="208.6" y1="684.88" x2="237.08" y2="684.88"/><line class="cls-3" x1="208.88" y1="681.88" x2="237.36" y2="681.88"/><line class="cls-3" x1="208.6" y1="678.88" x2="237.08" y2="678.88"/><line class="cls-3" x1="209.17" y1="675.88" x2="236.91" y2="675.88"/><line class="cls-3" x1="208.88" y1="672.88" x2="237.36" y2="672.88"/><line class="cls-3" x1="209.17" y1="669.88" x2="236.91" y2="669.88"/><line class="cls-3" x1="208.88" y1="666.88" x2="237.36" y2="666.88"/><line class="cls-3" x1="209.03" y1="699.83" x2="237.5" y2="699.83"/><line class="cls-3" x1="209.17" y1="705.88" x2="236.91" y2="705.88"/><line class="cls-3" x1="208.88" y1="702.88" x2="237.36" y2="702.88"/><line class="cls-3" x1="236.57" y1="721.35" x2="208.82" y2="721.35"/><line class="cls-3" x1="208.54" y1="718.35" x2="237.02" y2="718.35"/><line class="cls-3" x1="208.26" y1="715.35" x2="236.73" y2="715.35"/><line class="cls-3" x1="208.54" y1="712.35" x2="237.02" y2="712.35"/><line class="cls-3" x1="208.26" y1="709.35" x2="236.73" y2="709.35"/><line class="cls-3" x1="208.68" y1="724.3" x2="237.16" y2="724.3"/><line class="cls-3" x1="207.71" y1="697.67" x2="178.46" y2="697.67"/><line class="cls-3" x1="178.16" y1="694.67" x2="208.18" y2="694.67"/><line class="cls-3" x1="177.86" y1="691.67" x2="207.88" y2="691.67"/><line class="cls-3" x1="178.16" y1="688.67" x2="208.18" y2="688.67"/><line class="cls-3" x1="177.86" y1="685.67" x2="207.88" y2="685.67"/><line class="cls-3" x1="178.16" y1="682.67" x2="208.18" y2="682.67"/><line class="cls-3" x1="177.86" y1="679.67" x2="207.88" y2="679.67"/><line class="cls-3" x1="178.46" y1="676.67" x2="207.71" y2="676.67"/><line class="cls-3" x1="178.16" y1="673.67" x2="208.18" y2="673.67"/><line class="cls-3" x1="178.46" y1="670.67" x2="207.71" y2="670.67"/><line class="cls-3" x1="178.16" y1="667.67" x2="208.18" y2="667.67"/><line class="cls-3" x1="178.31" y1="700.62" x2="208.33" y2="700.62"/><line class="cls-3" x1="178.46" y1="706.67" x2="207.71" y2="706.67"/><line class="cls-3" x1="178.16" y1="703.67" x2="208.18" y2="703.67"/><line class="cls-3" x1="207.35" y1="722.14" x2="178.1" y2="722.14"/><line class="cls-3" x1="177.8" y1="719.14" x2="207.82" y2="719.14"/><line class="cls-3" x1="177.5" y1="716.14" x2="207.52" y2="716.14"/><line class="cls-3" x1="177.8" y1="713.14" x2="207.82" y2="713.14"/><line class="cls-3" x1="177.5" y1="710.14" x2="207.52" y2="710.14"/><line class="cls-3" x1="177.95" y1="725.09" x2="207.97" y2="725.09"/><line class="cls-1" x1="237" y1="746.01" x2="237" y2="759.01"/><line class="cls-1" x1="118.5" y1="61.51" x2="49.5" y2="61.51"/><line class="cls-1" x1="49.5" y1="33.51" x2="118.5" y2="33.51"/><line class="cls-3" x1="79.82" y1="62.91" x2="79.82" y2="33.66"/><line class="cls-3" x1="82.82" y1="33.36" x2="82.82" y2="63.38"/><line class="cls-3" x1="85.82" y1="33.06" x2="85.82" y2="63.08"/><line class="cls-3" x1="88.82" y1="33.36" x2="88.82" y2="63.38"/><line class="cls-3" x1="91.82" y1="33.06" x2="91.82" y2="63.08"/><line class="cls-3" x1="94.82" y1="33.36" x2="94.82" y2="63.38"/><line class="cls-3" x1="97.82" y1="33.06" x2="97.82" y2="63.08"/><line class="cls-3" x1="100.82" y1="33.66" x2="100.82" y2="62.91"/><line class="cls-3" x1="103.82" y1="33.36" x2="103.82" y2="63.38"/><line class="cls-3" x1="106.82" y1="33.66" x2="106.82" y2="62.91"/><line class="cls-3" x1="109.82" y1="33.36" x2="109.82" y2="63.38"/><line class="cls-3" x1="76.87" y1="33.51" x2="76.87" y2="63.53"/><line class="cls-3" x1="70.82" y1="33.66" x2="70.82" y2="62.91"/><line class="cls-3" x1="73.82" y1="33.36" x2="73.82" y2="63.38"/><line class="cls-3" x1="55.34" y1="62.55" x2="55.34" y2="33.3"/><line class="cls-3" x1="58.34" y1="33" x2="58.34" y2="63.02"/><line class="cls-3" x1="61.34" y1="32.7" x2="61.34" y2="62.72"/><line class="cls-3" x1="64.34" y1="33" x2="64.34" y2="63.02"/><line class="cls-3" x1="67.34" y1="32.7" x2="67.34" y2="62.72"/><line class="cls-3" x1="52.39" y1="33.15" x2="52.39" y2="63.17"/><line class="cls-3" x1="71.82" y1="63.32" x2="71.82" y2="87.99"/><line class="cls-3" x1="74.82" y1="63.07" x2="74.82" y2="88.39"/><line class="cls-3" x1="56.34" y1="87.68" x2="56.34" y2="63.02"/><line class="cls-3" x1="59.34" y1="62.76" x2="59.34" y2="88.08"/><line class="cls-3" x1="62.34" y1="62.51" x2="62.34" y2="87.83"/><line class="cls-3" x1="65.34" y1="62.76" x2="65.34" y2="88.08"/><line class="cls-3" x1="68.34" y1="62.51" x2="68.34" y2="87.83"/><line class="cls-3" x1="53.39" y1="62.89" x2="53.39" y2="88.21"/><line class="cls-1" x1="50" y1="48.01" x2="113" y2="48.01"/><line class="cls-1" x1="79.5" y1="74.51" x2="49.5" y2="74.51"/><polyline class="cls-1" points="542.5 183.51 719.5 183.51 719.5 259"/><line class="cls-1" x1="545" y1="182.51" x2="531.18" y2="251.66"/></g><g id="Symbols"><rect class="cls-4" x="623.5" y="199.51" width="28" height="39"/><polyline class="cls-1" points="629.5 211.51 637.5 219.51 629 228.01"/><line class="cls-1" x1="637.5" y1="219.51" x2="616.5" y2="219.51"/><rect class="cls-4" x="925.5" y="85.51" width="28" height="39"/><polyline class="cls-1" points="931.5 97.51 939.5 105.51 931 114.01"/><line class="cls-1" x1="939.5" y1="105.51" x2="918.5" y2="105.51"/></g></svg>