<?xml version="1.0" encoding="utf-8"?>
<!-- Generator: Adobe Illustrator 23.0.3, SVG Export Plug-In . SVG Version: 6.00 Build 0)  -->
<svg version="1.1" id="Layer_1" xmlns="http://www.w3.org/2000/svg" xmlns:xlink="http://www.w3.org/1999/xlink" x="0px" y="0px"
	 viewBox="0 0 1054.3 1048.9" style="enable-background:new 0 0 1054.3 1048.9;" xml:space="preserve">
<style type="text/css">
	.st0{fill:#FAF8F5;stroke:#000000;stroke-width:6;stroke-miterlimit:10;}
	.st1{fill:#748275;stroke:#000000;stroke-width:6;stroke-miterlimit:10;}
	.st2{fill:none;stroke:#000000;stroke-width:4;stroke-miterlimit:10;}
	.st3{fill:none;stroke:#000000;stroke-miterlimit:10;}
</style>
<title>TP_4</title>
<polygon class="st0" points="1039.7,439.9 1039.7,518 1050.9,518 1050.9,1045.9 935.5,1045.9 935.5,1034.6 772.8,1034.6 
	629.8,1034.6 432.7,1034.6 432.7,1045.9 355.2,1045.9 355.2,933 347.4,933 347.4,859.2 339.7,859.2 343.5,527.6 3.3,527.6 19.3,377 
	11.3,377 17.3,236 23.3,236 24.3,178 30.3,178 42.3,3 1051.3,3 1051.3,440 "/>
<polyline class="st1" points="821.9,608.3 821.4,607.9 661.3,604.4 656.5,638.7 576.5,638.7 576.5,863.5 621.7,863.5 621.7,904 
	772.3,904 772.8,863.5 822.3,863.5 821.3,607.9 "/>
<polyline class="st2" points="432.7,1034.6 406.8,1034.6 406.8,961.7 495.3,962 495.3,969 "/>
<line class="st2" x1="576.9" y1="639.2" x2="576.9" y2="525.4"/>
<polyline class="st2" points="615.6,525.4 615.6,598.3 620.8,598.3 632,536.7 "/>
<line class="st2" x1="596.7" y1="522" x2="596.7" y2="600.1"/>
<line class="st2" x1="638.9" y1="602.7" x2="651.8" y2="540.2"/>
<line class="st3" x1="577.2" y1="527.4" x2="615.6" y2="527.4"/>
<line class="st3" x1="614.8" y1="556.1" x2="577.4" y2="556.1"/>
<line class="st3" x1="577" y1="553.5" x2="615.4" y2="553.5"/>
<line class="st3" x1="576.7" y1="550.9" x2="615.1" y2="550.9"/>
<line class="st3" x1="577" y1="548.3" x2="615.4" y2="548.3"/>
<line class="st3" x1="576.7" y1="545.7" x2="615.1" y2="545.7"/>
<line class="st3" x1="577" y1="543" x2="615.4" y2="543"/>
<line class="st3" x1="576.7" y1="540.5" x2="615.1" y2="540.5"/>
<line class="st3" x1="577.4" y1="537.8" x2="614.8" y2="537.8"/>
<line class="st3" x1="577" y1="535.2" x2="615.4" y2="535.2"/>
<line class="st3" x1="577.4" y1="532.6" x2="614.8" y2="532.6"/>
<line class="st3" x1="577" y1="530" x2="615.4" y2="530"/>
<line class="st3" x1="577.8" y1="558.2" x2="616.2" y2="558.2"/>
<line class="st3" x1="615.5" y1="586.9" x2="578" y2="586.9"/>
<line class="st3" x1="577.6" y1="584.3" x2="616" y2="584.3"/>
<line class="st3" x1="577.3" y1="581.7" x2="615.7" y2="581.7"/>
<line class="st3" x1="577.6" y1="579.1" x2="616" y2="579.1"/>
<line class="st3" x1="577.3" y1="576.5" x2="615.7" y2="576.5"/>
<line class="st3" x1="577.6" y1="573.9" x2="616" y2="573.9"/>
<line class="st3" x1="577.3" y1="571.3" x2="615.7" y2="571.3"/>
<line class="st3" x1="578" y1="568.7" x2="615.5" y2="568.7"/>
<line class="st3" x1="577.6" y1="566.1" x2="616" y2="566.1"/>
<line class="st3" x1="578" y1="563.5" x2="615.5" y2="563.5"/>
<line class="st3" x1="577.6" y1="560.9" x2="616" y2="560.9"/>
<line class="st3" x1="577.8" y1="589.5" x2="616.2" y2="589.5"/>
<line class="st3" x1="577.6" y1="597.3" x2="616" y2="597.3"/>
<line class="st3" x1="578" y1="594.7" x2="615.5" y2="594.7"/>
<line class="st3" x1="577.6" y1="592.1" x2="616" y2="592.1"/>
<line class="st3" x1="666.6" y1="568.5" x2="628" y2="561.3"/>
<line class="st3" x1="628.1" y1="558.7" x2="667.7" y2="566.1"/>
<line class="st3" x1="628.2" y1="556" x2="667.8" y2="563.4"/>
<line class="st3" x1="629" y1="553.5" x2="668.7" y2="561"/>
<line class="st3" x1="629.1" y1="550.9" x2="668.8" y2="558.3"/>
<line class="st3" x1="630" y1="548.4" x2="669.6" y2="555.8"/>
<line class="st3" x1="630" y1="545.8" x2="669.7" y2="553.2"/>
<line class="st3" x1="631.3" y1="543.4" x2="669.9" y2="550.6"/>
<line class="st3" x1="631.4" y1="540.7" x2="671" y2="548.2"/>
<line class="st3" x1="670.9" y1="545.5" x2="632.2" y2="538.2"/>
<line class="st3" x1="628" y1="563.5" x2="667.7" y2="570.9"/>
<line class="st3" x1="661.7" y1="599" x2="623" y2="591.7"/>
<line class="st3" x1="623.1" y1="589.1" x2="662.8" y2="596.5"/>
<line class="st3" x1="623.2" y1="586.4" x2="662.8" y2="593.9"/>
<line class="st3" x1="624.1" y1="584" x2="663.7" y2="591.4"/>
<line class="st3" x1="624.1" y1="581.3" x2="663.8" y2="588.8"/>
<line class="st3" x1="625" y1="578.8" x2="664.7" y2="586.3"/>
<line class="st3" x1="625.1" y1="576.2" x2="664.7" y2="583.6"/>
<line class="st3" x1="626.3" y1="573.8" x2="665" y2="581"/>
<line class="st3" x1="626.4" y1="571.2" x2="666.1" y2="578.6"/>
<line class="st3" x1="627.3" y1="568.7" x2="665.9" y2="575.9"/>
<line class="st3" x1="627.4" y1="566" x2="667" y2="573.5"/>
<line class="st3" x1="622.4" y1="594.2" x2="662" y2="601.6"/>
<line class="st3" x1="621.7" y1="596.8" x2="661.4" y2="604.2"/>
<polyline class="st2" points="1007.1,1009.8 1007.1,972.5 1022.6,972.5 1022.6,1009.8 "/>
<line class="st2" x1="996" y1="1009.8" x2="996" y2="968.2"/>
<line class="st2" x1="1035.6" y1="968.2" x2="1035.6" y2="1009.8"/>
<line class="st3" x1="987.4" y1="971.6" x2="1006.3" y2="971.6"/>
<line class="st3" x1="1005.9" y1="1000.3" x2="987.5" y2="1000.3"/>
<line class="st3" x1="987.3" y1="997.7" x2="1006.2" y2="997.7"/>
<line class="st3" x1="987.2" y1="995" x2="1006" y2="995"/>
<line class="st3" x1="987.3" y1="992.5" x2="1006.2" y2="992.5"/>
<line class="st3" x1="987.2" y1="989.8" x2="1006" y2="989.8"/>
<line class="st3" x1="987.3" y1="987.2" x2="1006.2" y2="987.2"/>
<line class="st3" x1="987.2" y1="984.6" x2="1006" y2="984.6"/>
<line class="st3" x1="987.5" y1="982" x2="1005.9" y2="982"/>
<line class="st3" x1="987.3" y1="979.4" x2="1006.2" y2="979.4"/>
<line class="st3" x1="987.5" y1="976.8" x2="1005.9" y2="976.8"/>
<line class="st3" x1="987.3" y1="974.2" x2="1006.2" y2="974.2"/>
<line class="st3" x1="987.4" y1="1002.8" x2="1006.3" y2="1002.8"/>
<line class="st3" x1="987.5" y1="1008.1" x2="1005.9" y2="1008.1"/>
<line class="st3" x1="987.3" y1="1005.5" x2="1006.2" y2="1005.5"/>
<line class="st3" x1="1023.3" y1="971.3" x2="1049.3" y2="971.3"/>
<line class="st3" x1="1048.8" y1="1000" x2="1023.4" y2="1000"/>
<line class="st3" x1="1023.2" y1="997.4" x2="1049.2" y2="997.4"/>
<line class="st3" x1="1022.9" y1="994.8" x2="1048.9" y2="994.8"/>
<line class="st3" x1="1023.2" y1="992.2" x2="1049.2" y2="992.2"/>
<line class="st3" x1="1022.9" y1="989.6" x2="1048.9" y2="989.6"/>
<line class="st3" x1="1023.2" y1="987" x2="1049.2" y2="987"/>
<line class="st3" x1="1022.9" y1="984.4" x2="1048.9" y2="984.4"/>
<line class="st3" x1="1023.4" y1="981.8" x2="1048.8" y2="981.8"/>
<line class="st3" x1="1023.2" y1="979.2" x2="1049.2" y2="979.2"/>
<line class="st3" x1="1023.4" y1="976.6" x2="1048.8" y2="976.6"/>
<line class="st3" x1="1023.2" y1="974" x2="1049.2" y2="974"/>
<line class="st3" x1="1023.3" y1="1002.6" x2="1049.3" y2="1002.6"/>
<line class="st3" x1="1023.4" y1="1007.8" x2="1048.8" y2="1007.8"/>
<line class="st3" x1="1023.2" y1="1005.2" x2="1049.2" y2="1005.2"/>
<line class="st2" x1="381.4" y1="961.2" x2="381.4" y2="1018.5"/>
<line class="st2" x1="392.6" y1="958.6" x2="392.6" y2="1021.1"/>
<line class="st2" x1="369.4" y1="1019.4" x2="369.4" y2="964.7"/>
<line class="st3" x1="382.7" y1="963.2" x2="407.3" y2="963.2"/>
<line class="st3" x1="406.8" y1="991.9" x2="382.9" y2="991.9"/>
<line class="st3" x1="382.6" y1="989.3" x2="407.1" y2="989.3"/>
<line class="st3" x1="382.4" y1="986.7" x2="406.9" y2="986.7"/>
<line class="st3" x1="382.6" y1="984.1" x2="407.1" y2="984.1"/>
<line class="st3" x1="382.4" y1="981.5" x2="406.9" y2="981.5"/>
<line class="st3" x1="382.6" y1="978.9" x2="407.1" y2="978.9"/>
<line class="st3" x1="382.4" y1="976.3" x2="406.9" y2="976.3"/>
<line class="st3" x1="382.9" y1="973.7" x2="406.8" y2="973.7"/>
<line class="st3" x1="382.6" y1="971.1" x2="407.1" y2="971.1"/>
<line class="st3" x1="382.9" y1="968.5" x2="406.8" y2="968.5"/>
<line class="st3" x1="382.6" y1="965.9" x2="407.1" y2="965.9"/>
<line class="st3" x1="382.7" y1="994.5" x2="407.3" y2="994.5"/>
<line class="st3" x1="382.9" y1="999.7" x2="406.8" y2="999.7"/>
<line class="st3" x1="382.6" y1="997.1" x2="407.1" y2="997.1"/>
<line class="st3" x1="406.5" y1="1013.2" x2="382.6" y2="1013.2"/>
<line class="st3" x1="382.3" y1="1010.6" x2="406.8" y2="1010.6"/>
<line class="st3" x1="382.1" y1="1008" x2="406.6" y2="1008"/>
<line class="st3" x1="382.3" y1="1005.3" x2="406.8" y2="1005.3"/>
<line class="st3" x1="382.1" y1="1002.8" x2="406.6" y2="1002.8"/>
<line class="st3" x1="382.4" y1="1015.7" x2="407" y2="1015.7"/>
<line class="st3" x1="381.6" y1="992.6" x2="356.4" y2="992.6"/>
<line class="st3" x1="356.2" y1="990" x2="382" y2="990"/>
<line class="st3" x1="355.9" y1="987.4" x2="381.8" y2="987.4"/>
<line class="st3" x1="356.2" y1="984.8" x2="382" y2="984.8"/>
<line class="st3" x1="355.9" y1="982.2" x2="381.8" y2="982.2"/>
<line class="st3" x1="356.2" y1="979.6" x2="382" y2="979.6"/>
<line class="st3" x1="355.9" y1="977" x2="381.8" y2="977"/>
<line class="st3" x1="356.4" y1="974.4" x2="381.6" y2="974.4"/>
<line class="st3" x1="356.2" y1="971.8" x2="382" y2="971.8"/>
<line class="st3" x1="356.4" y1="969.2" x2="381.6" y2="969.2"/>
<line class="st3" x1="356.2" y1="966.6" x2="382" y2="966.6"/>
<line class="st3" x1="356.3" y1="995.2" x2="382.1" y2="995.2"/>
<line class="st3" x1="356.4" y1="1000.4" x2="381.6" y2="1000.4"/>
<line class="st3" x1="356.2" y1="997.8" x2="382" y2="997.8"/>
<line class="st3" x1="381.3" y1="1013.8" x2="356.1" y2="1013.8"/>
<line class="st3" x1="355.9" y1="1011.2" x2="381.7" y2="1011.2"/>
<line class="st3" x1="355.6" y1="1008.6" x2="381.4" y2="1008.6"/>
<line class="st3" x1="355.9" y1="1006" x2="381.7" y2="1006"/>
<line class="st3" x1="355.6" y1="1003.4" x2="381.4" y2="1003.4"/>
<line class="st3" x1="356" y1="1016.4" x2="381.8" y2="1016.4"/>
<line class="st2" x1="406.8" y1="1034.6" x2="406.8" y2="1045.9"/>
<polyline class="st2" points="669.9,546.3 822.3,546.3 822.3,611.8 "/>
<line class="st2" x1="672" y1="545.4" x2="660.1" y2="605.4"/>
<line class="st2" x1="495.3" y1="985" x2="495.3" y2="1034.6"/>
<polyline class="st2" points="355.3,933 406.3,933 406.3,941 495.3,941 495.3,915 438.3,915 438.3,895 347.4,895 "/>
<line class="st2" x1="438.3" y1="915" x2="438.3" y2="941"/>
<line class="st2" x1="475.9" y1="915" x2="475.9" y2="940.8"/>
<line class="st2" x1="456" y1="915" x2="456" y2="941"/>
<polyline class="st2" points="438.3,895 495.3,895 495.3,876 "/>
<line class="st2" x1="495.3" y1="857" x2="495.3" y2="739"/>
<line class="st2" x1="495.3" y1="718" x2="495.3" y2="605"/>
<polyline class="st2" points="495.3,584 495.3,527 343.3,527 "/>
<line class="st2" x1="340.9" y1="752.2" x2="495.3" y2="752.2"/>
<line class="st2" x1="342.5" y1="613.4" x2="495.3" y2="613.4"/>
<line class="st2" x1="986.3" y1="1010" x2="986.3" y2="940"/>
<polyline class="st2" points="1039.3,518 899.3,518 899.3,565 "/>
<line class="st2" x1="899.3" y1="580" x2="899.3" y2="680"/>
<line class="st2" x1="899.3" y1="697" x2="899.3" y2="816"/>
<polyline class="st2" points="899.3,835 899.3,941 1050.9,941 "/>
<polyline class="st2" points="886.3,1013 886.3,941 899.3,941 "/>
<polyline class="st2" points="886.3,1000 952.3,1000 952.3,941 "/>
<line class="st2" x1="952.3" y1="1000" x2="987.5" y2="1000"/>
<rect x="346.5" y="376.3" class="st2" width="72.9" height="24.8"/>
<line class="st2" x1="364.6" y1="376.3" x2="364.6" y2="401.1"/>
<line class="st2" x1="385" y1="376.3" x2="385" y2="401.1"/>
<polyline class="st2" points="404.6,376.3 404.6,401.1 404.6,420.2 346.5,420.2 346.5,441.9 419.3,441.9 419.3,401.1 723.3,401.1 
	723.3,441.9 419.3,441.9 "/>
<polyline class="st2" points="723.3,441.9 746.1,441.9 746.1,401.1 723.3,401.1 "/>
<polyline class="st2" points="746.1,401.1 769,401.1 769,441.9 746.1,441.9 "/>
<rect x="769" y="401.1" class="st2" width="53.3" height="40.8"/>
<line class="st2" x1="346.5" y1="376.3" x2="346.5" y2="341.7"/>
<polyline class="st2" points="346.5,325.3 346.5,316.4 419.3,316.4 419.3,376.3 "/>
<polyline class="st2" points="346.5,316.4 346.5,254.3 398.8,254.3 "/>
<polyline class="st2" points="419.3,316.4 419.3,254.3 413,254.3 "/>
<line class="st2" x1="419.3" y1="254.3" x2="482.6" y2="254.3"/>
<polyline class="st2" points="504.3,254.3 561.5,254.3 561.5,401.1 "/>
<line class="st2" x1="561.5" y1="254.3" x2="620.5" y2="254.3"/>
<polyline class="st2" points="641.8,254.3 696.8,254.3 696.8,401.1 "/>
<line class="st2" x1="696.8" y1="254.3" x2="750.8" y2="254.3"/>
<line class="st2" x1="764.6" y1="254.3" x2="827.5" y2="254.3"/>
<polyline class="st2" points="843.1,254.3 854.2,254.3 854.2,335.9 "/>
<line class="st2" x1="696.8" y1="326.2" x2="854.2" y2="326.2"/>
<line class="st2" x1="775.5" y1="254.3" x2="775.5" y2="326.2"/>
<polyline class="st2" points="822.3,401.1 822.3,388.7 854.2,388.7 854.2,359 "/>
<line class="st2" x1="899.3" y1="661.5" x2="1050.9" y2="661.5"/>
<line class="st2" x1="899.3" y1="798" x2="1050.9" y2="798"/>
<polyline class="st2" points="578,1034.6 578,963.2 633.8,963.2 "/>
<line class="st2" x1="648.9" y1="963.2" x2="711.8" y2="963.2"/>
<line class="st2" x1="726.5" y1="963.2" x2="790.3" y2="963.2"/>
<polyline class="st2" points="804.5,963.2 814.2,963.2 814.2,1034.6 "/>
<line class="st2" x1="660.1" y1="963.2" x2="660.1" y2="1034.6"/>
<line class="st2" x1="737.1" y1="963.2" x2="737.1" y2="1034.6"/>
<line class="st2" x1="147.7" y1="527.6" x2="147.7" y2="427"/>
<line class="st2" x1="147.7" y1="401.1" x2="147.7" y2="290.2"/>
<line class="st2" x1="19.3" y1="377" x2="147.7" y2="377"/>
<line class="st2" x1="147.7" y1="267.4" x2="147.7" y2="218.5"/>
<line class="st2" x1="23.3" y1="236" x2="147.7" y2="236"/>
<polyline class="st2" points="147.7,197.6 147.7,90.8 36.3,90.8 "/>
<polyline class="st2" points="127.8,3 127.8,66.9 206.6,66.9 206.6,3 "/>
<polyline class="st2" points="264.4,178.6 283.4,178.6 283.4,86.8 183.6,86.8 183.6,178.6 241.5,178.6 "/>
<polyline class="st2" points="283.4,86.8 308.3,86.8 308.3,108.8 283.4,108.8 "/>
<polyline class="st2" points="283.4,153.7 308.3,153.7 308.3,128.8 283.4,128.8 "/>
<polyline class="st2" points="343.3,3 343.3,153.7 355.2,153.7 "/>
<polyline class="st2" points="382.9,153.7 504.3,153.7 504.3,3 "/>
<line class="st2" x1="504.3" y1="153.7" x2="513.8" y2="153.7"/>
<polyline class="st2" points="534.9,153.7 660.1,153.7 660.1,3 "/>
<line class="st2" x1="660.1" y1="153.7" x2="669.6" y2="153.7"/>
<line class="st2" x1="690.4" y1="153.7" x2="809.2" y2="153.7"/>
<polyline class="st2" points="832.1,153.7 854.2,153.7 854.2,3 "/>
<line class="st2" x1="775.5" y1="3" x2="775.5" y2="153.7"/>
<polyline class="st2" points="1050.9,380 931.8,380 931.8,409.1 1005.7,409.1 "/>
<polyline class="st2" points="1005.7,380 1005.7,425.6 931.8,425.6 931.8,440 1039.7,440 "/>
<line class="st2" x1="950.8" y1="380" x2="950.8" y2="409.1"/>
<line class="st2" x1="969.3" y1="380" x2="969.3" y2="409.1"/>
<line class="st2" x1="991.4" y1="380" x2="991.4" y2="409.1"/>
<circle class="st2" cx="674.1" cy="201.2" r="10.4"/>
<circle class="st2" cx="361.4" cy="201.2" r="10.4"/>
<polyline class="st2" points="931.8,380 907.9,380 907.9,236 "/>
<path class="st2" d="M1051.3,236H924.9c0,0,17-28.7,0-57.4"/>
<polyline class="st2" points="1051.3,78.3 907.9,78.3 907.9,166.7 "/>
<line class="st2" x1="285" y1="405.2" x2="233.2" y2="405.2"/>
<line class="st3" x1="237" y1="417" x2="237" y2="393.6"/>
<line class="st3" x1="280.5" y1="416.9" x2="280.5" y2="393.5"/>
<line class="st3" x1="276.5" y1="417.1" x2="276.5" y2="393.7"/>
<line class="st3" x1="272.6" y1="417.4" x2="272.6" y2="393.9"/>
<line class="st3" x1="268.6" y1="417.1" x2="268.6" y2="393.7"/>
<line class="st3" x1="264.7" y1="417.4" x2="264.7" y2="393.9"/>
<line class="st3" x1="260.7" y1="417.1" x2="260.7" y2="393.7"/>
<line class="st3" x1="256.8" y1="417.4" x2="256.8" y2="393.9"/>
<line class="st3" x1="252.8" y1="416.9" x2="252.8" y2="393.5"/>
<line class="st3" x1="248.9" y1="417.1" x2="248.9" y2="393.7"/>
<line class="st3" x1="244.9" y1="416.9" x2="244.9" y2="393.5"/>
<line class="st3" x1="241" y1="417.1" x2="241" y2="393.7"/>
<line class="st2" x1="286.3" y1="426.8" x2="231.3" y2="426.8"/>
<line class="st3" x1="235.3" y1="438.6" x2="235.3" y2="415.2"/>
<line class="st3" x1="281.4" y1="438.5" x2="281.4" y2="415.1"/>
<line class="st3" x1="277.2" y1="438.8" x2="277.2" y2="415.3"/>
<line class="st3" x1="273" y1="439" x2="273" y2="415.6"/>
<line class="st3" x1="268.8" y1="438.8" x2="268.8" y2="415.3"/>
<line class="st3" x1="264.6" y1="439" x2="264.6" y2="415.6"/>
<line class="st3" x1="260.5" y1="438.8" x2="260.5" y2="415.3"/>
<line class="st3" x1="256.3" y1="439" x2="256.3" y2="415.6"/>
<line class="st3" x1="252.1" y1="438.5" x2="252.1" y2="415.1"/>
<line class="st3" x1="247.9" y1="438.8" x2="247.9" y2="415.3"/>
<line class="st3" x1="243.7" y1="438.5" x2="243.7" y2="415.1"/>
<line class="st3" x1="239.6" y1="438.8" x2="239.6" y2="415.3"/>
<line class="st2" x1="286.6" y1="417.3" x2="231.6" y2="417.3"/>
<polyline class="st2" points="225.9,441.9 304.4,441.9 304.4,393.5 206.6,393.5 206.6,441.9 178,441.9 178,341.7 304.4,341.7 
	304.4,346.3 "/>
<line class="st2" x1="244.9" y1="341.7" x2="244.9" y2="393.5"/>
<polyline class="st2" points="178,341.7 178,232.8 239.6,232.8 "/>
<polyline class="st2" points="260.5,232.8 281.4,232.8 281.4,256.4 304.4,256.4 304.4,341.7 "/>
</svg>
