<svg id="Layer_1" data-name="Layer 1" xmlns="http://www.w3.org/2000/svg" viewBox="0 0 1321.75 154.5"><defs><style>.cls-1,.cls-2{fill:#fff;}.cls-2{stroke:#000;stroke-miterlimit:10;}</style></defs><title>oops</title><path class="cls-1" d="M58.06,134.25H40.55V113.38H58.06Zm0,60.94H40.55V174.31H58.06Z" transform="translate(-40.55 -81.22)"/><path class="cls-1" d="M140.68,225.37H123.9a116,116,0,0,1-20.14-32.45q-7.17-17.58-7.18-39.63t7.18-39.62A116,116,0,0,1,123.9,81.22h16.78V82A92.11,92.11,0,0,0,129.36,94.3a98.26,98.26,0,0,0-10,16.29,102.88,102.88,0,0,0-7.14,19.85,98.2,98.2,0,0,0-.07,45.78A104.89,104.89,0,0,0,119.36,196a95.28,95.28,0,0,0,21.32,28.64Z" transform="translate(-40.55 -81.22)"/><path class="cls-1" d="M256.48,195.19h-7.73V166.71h-29v28.48H212V137h7.73v22.82h29V137h7.73Z" transform="translate(-40.55 -81.22)"/><path class="cls-1" d="M308.71,173.39q0,10.67-5.47,16.84t-14.65,6.17q-9.25,0-14.71-6.17t-5.44-16.84q0-10.66,5.44-16.85t14.71-6.19q9.18,0,14.65,6.19T308.71,173.39Zm-7.58,0q0-8.47-3.32-12.6a12.44,12.44,0,0,0-18.5,0q-3.3,4.13-3.3,12.6,0,8.21,3.32,12.44a12.2,12.2,0,0,0,18.46,0Q301.14,181.67,301.13,173.39Z" transform="translate(-40.55 -81.22)"/><path class="cls-1" d="M358.47,172.85a29.33,29.33,0,0,1-1.52,9.7,21.1,21.1,0,0,1-4.3,7.44,17.89,17.89,0,0,1-13.47,6.06,23.78,23.78,0,0,1-6.15-.74,25.81,25.81,0,0,1-5.61-2.31v18.28h-7.34V151.56h7.34v4.57A28.33,28.33,0,0,1,334,152a18.57,18.57,0,0,1,7.79-1.66,14.4,14.4,0,0,1,12.29,6Q358.48,162.26,358.47,172.85Zm-7.57.19q0-7.89-2.7-11.8t-8.28-3.9a16.16,16.16,0,0,0-6.37,1.36,29,29,0,0,0-6.13,3.6V187a29.11,29.11,0,0,0,5.37,1.92,23.16,23.16,0,0,0,5.1.51q6.14,0,9.57-4.14T350.9,173Z" transform="translate(-40.55 -81.22)"/><path class="cls-1" d="M408.32,172.85a29.33,29.33,0,0,1-1.53,9.7A21.08,21.08,0,0,1,402.5,190a18.1,18.1,0,0,1-6.08,4.48,17.82,17.82,0,0,1-7.4,1.58,23.89,23.89,0,0,1-6.15-.74,25.81,25.81,0,0,1-5.61-2.31v18.28h-7.34V151.56h7.34v4.57a28.39,28.39,0,0,1,6.59-4.12,18.53,18.53,0,0,1,7.79-1.66,14.38,14.38,0,0,1,12.28,6Q408.32,162.26,408.32,172.85Zm-7.58.19q0-7.89-2.7-11.8t-8.28-3.9a16.08,16.08,0,0,0-6.36,1.36,29.08,29.08,0,0,0-6.14,3.6V187a29.63,29.63,0,0,0,5.37,1.92,23.16,23.16,0,0,0,5.1.51q6.13,0,9.57-4.14T400.74,173Z" transform="translate(-40.55 -81.22)"/><path class="cls-1" d="M450.94,182.61a11.88,11.88,0,0,1-4.95,9.81q-4.94,3.83-13.49,3.82a32.32,32.32,0,0,1-8.89-1.15,40.31,40.31,0,0,1-6.78-2.52v-8.24h.39a29.69,29.69,0,0,0,7.74,4.16,23.9,23.9,0,0,0,8.16,1.54,15.38,15.38,0,0,0,7.58-1.56,5.27,5.27,0,0,0,2.74-4.92,5,5,0,0,0-1.49-3.91c-1-.88-2.89-1.64-5.7-2.26-1-.24-2.4-.51-4.08-.82s-3.21-.65-4.59-1q-5.74-1.53-8.15-4.47a11.12,11.12,0,0,1-2.4-7.25,11.88,11.88,0,0,1,1.11-5.08,12.3,12.3,0,0,1,3.38-4.25,15.94,15.94,0,0,1,5.57-2.91,24.74,24.74,0,0,1,7.56-1.08,33.87,33.87,0,0,1,7.91,1,30,30,0,0,1,6.66,2.32v7.85h-.39a26.4,26.4,0,0,0-6.84-3.49,23.53,23.53,0,0,0-7.89-1.43,13.81,13.81,0,0,0-6.8,1.55,5.42,5.42,0,0,0-1.09,8.65,13.05,13.05,0,0,0,5.31,2.22c1.36.32,2.87.63,4.55.94s3.08.6,4.2.86a15.56,15.56,0,0,1,7.89,4A10.6,10.6,0,0,1,450.94,182.61Z" transform="translate(-40.55 -81.22)"/><path class="cls-1" d="M495.35,195.19H488v-4.65c-.65.44-1.53,1.06-2.63,1.86a19.33,19.33,0,0,1-3.22,1.89,21.89,21.89,0,0,1-4.22,1.5,22.55,22.55,0,0,1-5.59.61,14,14,0,0,1-10-3.91,13.16,13.16,0,0,1-4.1-10,13.78,13.78,0,0,1,2.13-8,14.16,14.16,0,0,1,6.07-4.83,33,33,0,0,1,9.57-2.38q5.59-.63,12-.94v-1.13a8.76,8.76,0,0,0-.87-4.14,6.39,6.39,0,0,0-2.52-2.58,10.54,10.54,0,0,0-3.75-1.21,32.17,32.17,0,0,0-4.57-.31,30.88,30.88,0,0,0-6.45.76,50.48,50.48,0,0,0-7.34,2.2h-.39v-7.46q2.14-.59,6.21-1.29a47.74,47.74,0,0,1,8-.7,37.73,37.73,0,0,1,8,.76,15.72,15.72,0,0,1,5.92,2.6,11.56,11.56,0,0,1,3.75,4.65,17.15,17.15,0,0,1,1.29,7.07ZM488,184.45V172.3c-2.24.13-4.87.32-7.91.58a41.19,41.19,0,0,0-7.2,1.14,11.87,11.87,0,0,0-5.12,2.79,8.07,8.07,0,0,0,.31,10.86q2.26,1.89,6.92,1.89a16.47,16.47,0,0,0,7.07-1.5A32,32,0,0,0,488,184.45Z" transform="translate(-40.55 -81.22)"/><path class="cls-1" d="M546,195.19h-7.34V170.35a43.6,43.6,0,0,0-.35-5.65,10.31,10.31,0,0,0-1.29-4.12,5.94,5.94,0,0,0-2.81-2.44,12,12,0,0,0-4.77-.8,15.26,15.26,0,0,0-6.29,1.48,32.27,32.27,0,0,0-6.29,3.79v32.58h-7.34V151.56h7.34v4.84a30.07,30.07,0,0,1,7.11-4.45,18.64,18.64,0,0,1,7.54-1.6q7.08,0,10.78,4.25T546,166.87Z" transform="translate(-40.55 -81.22)"/><path class="cls-1" d="M623.63,195.19h-7.34v-4.57a26.85,26.85,0,0,1-6.6,4.26,18.34,18.34,0,0,1-7.47,1.52,14.77,14.77,0,0,1-12.4-6q-4.59-6-4.59-16.68a28.85,28.85,0,0,1,1.58-9.88,22.82,22.82,0,0,1,4.28-7.38,18.1,18.1,0,0,1,13.52-6.09,23.34,23.34,0,0,1,6.09.72,28.71,28.71,0,0,1,5.59,2.24v-18.9h7.34Zm-7.34-10.74v-25a27.3,27.3,0,0,0-5.32-1.84,24,24,0,0,0-5.11-.51,11.62,11.62,0,0,0-9.61,4.3q-3.43,4.3-3.44,12.19t2.66,11.81q2.65,4,8.51,4a15.75,15.75,0,0,0,6.33-1.39A26.52,26.52,0,0,0,616.29,184.45Z" transform="translate(-40.55 -81.22)"/><path class="cls-1" d="M672,195.19h-7.3v-4.65c-.66.44-1.53,1.06-2.64,1.86a19.33,19.33,0,0,1-3.22,1.89,21.65,21.65,0,0,1-4.22,1.5,22.55,22.55,0,0,1-5.59.61,14,14,0,0,1-10-3.91,13.16,13.16,0,0,1-4.1-10,13.78,13.78,0,0,1,2.13-8,14.16,14.16,0,0,1,6.07-4.83,33,33,0,0,1,9.57-2.38c3.73-.42,7.72-.73,12-.94v-1.13a8.76,8.76,0,0,0-.88-4.14,6.39,6.39,0,0,0-2.52-2.58,10.41,10.41,0,0,0-3.75-1.21A32.17,32.17,0,0,0,653,157a30.88,30.88,0,0,0-6.45.76,50.48,50.48,0,0,0-7.34,2.2h-.39v-7.46q2.15-.59,6.21-1.29a47.83,47.83,0,0,1,8-.7,37.73,37.73,0,0,1,8,.76,15.72,15.72,0,0,1,5.92,2.6,11.56,11.56,0,0,1,3.75,4.65,17.15,17.15,0,0,1,1.29,7.07Zm-7.3-10.74V172.3q-3.36.19-7.91.58a41.17,41.17,0,0,0-7.21,1.14,11.87,11.87,0,0,0-5.12,2.79,8.07,8.07,0,0,0,.31,10.86q2.26,1.89,6.92,1.89a16.47,16.47,0,0,0,7.07-1.5A32.46,32.46,0,0,0,664.69,184.45Zm-13.79-40.2h-7.78v-7.62h7.78Zm16.13,0h-7.77v-7.62H667Z" transform="translate(-40.55 -81.22)"/><path class="cls-1" d="M713.36,159.56H713a25.79,25.79,0,0,0-3.19-.56,32,32,0,0,0-3.65-.18,15,15,0,0,0-6.56,1.51,30.22,30.22,0,0,0-6.1,3.88v31h-7.34V151.56h7.34V158a36.32,36.32,0,0,1,7.72-5,16.77,16.77,0,0,1,6.82-1.46c1.27,0,2.2,0,2.77.09s1.43.19,2.58.37Z" transform="translate(-40.55 -81.22)"/><path class="cls-1" d="M786.79,173a29.37,29.37,0,0,1-1.54,9.84,22,22,0,0,1-4.16,7.35,19,19,0,0,1-6.09,4.63,17.13,17.13,0,0,1-7.31,1.54,21.38,21.38,0,0,1-6.48-.88,29.92,29.92,0,0,1-5.47-2.36l-.47,2H748.4V134.41h7.34v21.72A30.46,30.46,0,0,1,762.3,152a18.29,18.29,0,0,1,7.82-1.62,14.44,14.44,0,0,1,12.2,5.93Q786.79,162.22,786.79,173Zm-7.57.2q0-7.81-2.58-11.86t-8.32-4a16.65,16.65,0,0,0-6.49,1.38,27.43,27.43,0,0,0-6.09,3.58v25a31.1,31.1,0,0,0,5.37,1.95,21.37,21.37,0,0,0,5.1.55q6.09,0,9.55-4T779.22,173.24Z" transform="translate(-40.55 -81.22)"/><path class="cls-1" d="M805.66,195.19h-7.34V134.41h7.34Z" transform="translate(-40.55 -81.22)"/><path class="cls-1" d="M856.72,174.13H824.57a18.59,18.59,0,0,0,1.21,7,13,13,0,0,0,8.14,7.71,19.18,19.18,0,0,0,6.16.94,24.24,24.24,0,0,0,9-1.78,21.92,21.92,0,0,0,6.43-3.5h.39v8a60.63,60.63,0,0,1-7.58,2.62,30.92,30.92,0,0,1-8.13,1q-10.86,0-16.95-5.87t-6.09-16.7q0-10.71,5.84-17t15.37-6.28q8.82,0,13.61,5.15t4.79,14.65Zm-7.15-5.62c0-3.85-1-6.84-2.91-8.95s-4.83-3.16-8.73-3.16a12.74,12.74,0,0,0-9.4,3.48,13.46,13.46,0,0,0-4,8.63Z" transform="translate(-40.55 -81.22)"/><path class="cls-1" d="M905.58,151.56l-17.65,43.63h-7.39L863,151.56h8l13.52,34.72,13.4-34.72Z" transform="translate(-40.55 -81.22)"/><path class="cls-1" d="M978.71,195.19h-7.34v-4.57a26.9,26.9,0,0,1-6.61,4.26,18.29,18.29,0,0,1-7.46,1.52,14.76,14.76,0,0,1-12.4-6q-4.59-6-4.59-16.68a28.85,28.85,0,0,1,1.58-9.88,22.82,22.82,0,0,1,4.28-7.38,18.1,18.1,0,0,1,13.52-6.09,23.34,23.34,0,0,1,6.09.72,28.71,28.71,0,0,1,5.59,2.24v-18.9h7.34Zm-7.34-10.74v-25a27.3,27.3,0,0,0-5.32-1.84,24,24,0,0,0-5.11-.51,11.62,11.62,0,0,0-9.61,4.3q-3.45,4.3-3.44,12.19t2.65,11.81c1.78,2.7,4.61,4,8.52,4a15.79,15.79,0,0,0,6.33-1.39A26.74,26.74,0,0,0,971.37,184.45Z" transform="translate(-40.55 -81.22)"/><path class="cls-1" d="M1029.69,174.13H997.54a18.59,18.59,0,0,0,1.21,7,13,13,0,0,0,8.14,7.71,19.07,19.07,0,0,0,6.15.94,24.25,24.25,0,0,0,9-1.78,21.92,21.92,0,0,0,6.43-3.5h.39v8a60.63,60.63,0,0,1-7.58,2.62,30.92,30.92,0,0,1-8.13,1q-10.86,0-17-5.87t-6.09-16.7q0-10.71,5.84-17t15.37-6.28q8.82,0,13.61,5.15t4.79,14.65Zm-7.15-5.62c0-3.85-1-6.84-2.91-8.95s-4.83-3.16-8.73-3.16-7.07,1.16-9.4,3.48a13.46,13.46,0,0,0-4,8.63Z" transform="translate(-40.55 -81.22)"/><path class="cls-1" d="M1063.47,194.8a42.29,42.29,0,0,1-4.51.9,31.59,31.59,0,0,1-4.35.35q-6.69,0-10.16-3.6T1041,180.93v-23.2h-5v-6.17h5V139h7.35v12.54h15.15v6.17h-15.15v19.88q0,3.44.15,5.37a8.83,8.83,0,0,0,1.1,3.62,5.25,5.25,0,0,0,2.36,2.28,11.12,11.12,0,0,0,4.59.72,14.4,14.4,0,0,0,3.75-.52c1.3-.36,2.24-.65,2.81-.88h.39Z" transform="translate(-40.55 -81.22)"/><path class="cls-1" d="M1107.89,195.19h-7.35V134.41h7.35Z" transform="translate(-40.55 -81.22)"/><path class="cls-1" d="M1130.31,144.25H1122v-7.62h8.28Zm-.47,50.94h-7.34V151.56h7.34Z" transform="translate(-40.55 -81.22)"/><path class="cls-1" d="M1167,194.8a42.8,42.8,0,0,1-4.51.9,31.6,31.6,0,0,1-4.36.35q-6.67,0-10.15-3.6t-3.48-11.52v-23.2h-5v-6.17h5V139h7.34v12.54H1167v6.17h-15.16v19.88c0,2.29.05,4.08.16,5.37a8.81,8.81,0,0,0,1.09,3.62,5.27,5.27,0,0,0,2.37,2.28,11.12,11.12,0,0,0,4.59.72,14.52,14.52,0,0,0,3.75-.52c1.3-.36,2.24-.65,2.81-.88h.39Z" transform="translate(-40.55 -81.22)"/><path class="cls-1" d="M1212.42,174.13h-32.15a18.59,18.59,0,0,0,1.21,7,13.32,13.32,0,0,0,3.32,4.9,13.14,13.14,0,0,0,4.83,2.81,19.07,19.07,0,0,0,6.15.94,24.16,24.16,0,0,0,9-1.78,21.92,21.92,0,0,0,6.43-3.5h.39v8a60.08,60.08,0,0,1-7.58,2.62,30.84,30.84,0,0,1-8.12,1q-10.86,0-17-5.87t-6.09-16.7q0-10.71,5.84-17t15.37-6.28q8.84,0,13.61,5.15t4.79,14.65Zm-7.15-5.62c0-3.85-1-6.84-2.91-8.95s-4.82-3.16-8.73-3.16a12.72,12.72,0,0,0-9.39,3.48,13.47,13.47,0,0,0-4,8.63Z" transform="translate(-40.55 -81.22)"/><path class="cls-1" d="M1275.15,141.52h-.39c-.8-.24-1.86-.48-3.16-.73a19.36,19.36,0,0,0-3.44-.37q-4.73,0-6.85,2.09t-2.13,7.56v1.49h13.24v6.17h-13v37.46h-7.34V157.73h-5v-6.17h5v-1.45q0-7.77,3.87-11.93t11.17-4.16a39.21,39.21,0,0,1,4.43.23c1.32.16,2.52.34,3.61.55Z" transform="translate(-40.55 -81.22)"/><path class="cls-1" d="M1316.33,174.13h-32.15a18.59,18.59,0,0,0,1.21,7,13,13,0,0,0,8.14,7.71,19.14,19.14,0,0,0,6.16.94,24.24,24.24,0,0,0,9-1.78,21.92,21.92,0,0,0,6.43-3.5h.39v8a60.63,60.63,0,0,1-7.58,2.62,30.92,30.92,0,0,1-8.13,1q-10.86,0-17-5.87t-6.09-16.7q0-10.71,5.84-17t15.37-6.28q8.82,0,13.61,5.15t4.79,14.65Zm-7.15-5.62c0-3.85-1-6.84-2.91-8.95s-4.83-3.16-8.73-3.16-7.07,1.16-9.4,3.48a13.46,13.46,0,0,0-4,8.63Z" transform="translate(-40.55 -81.22)"/><path class="cls-1" d="M1334.88,195.19h-7.34V134.41h7.34Z" transform="translate(-40.55 -81.22)"/><path class="cls-1" d="M1362.3,137l-1,42.15h-6.64l-1.1-42.15Zm-.39,58.17h-8V187h8Z" transform="translate(-40.55 -81.22)"/><path class="cls-2" d="M967.32,608.58" transform="translate(-40.55 -81.22)"/><path class="cls-1" d="M223.78,235.45h-2.26l-5.17-5.83-1.3,1.39v4.44h-1.74V222.36h1.74v6.83l6.35-6.83h2.11l-5.84,6.15Z" transform="translate(-40.55 -81.22)"/><path class="cls-1" d="M232.7,235.45h-1.64v-1l-.59.42a4.34,4.34,0,0,1-.73.43,5,5,0,0,1-1,.33,4.63,4.63,0,0,1-1.25.14,3.11,3.11,0,0,1-2.25-.88,2.93,2.93,0,0,1-.93-2.24,3.12,3.12,0,0,1,.48-1.81,3.19,3.19,0,0,1,1.37-1.08,7.67,7.67,0,0,1,2.15-.54q1.26-.13,2.7-.21v-.25a1.83,1.83,0,0,0-.2-.93,1.42,1.42,0,0,0-.56-.58,2.37,2.37,0,0,0-.85-.28,8.47,8.47,0,0,0-1-.07A7.36,7.36,0,0,0,227,227a11.79,11.79,0,0,0-1.65.5h-.09v-1.68c.33-.09.79-.18,1.4-.29a11.14,11.14,0,0,1,1.8-.16,8.7,8.7,0,0,1,1.81.17,3.51,3.51,0,0,1,1.33.59,2.55,2.55,0,0,1,.84,1,3.71,3.71,0,0,1,.29,1.59ZM231.06,233V230.3c-.5,0-1.1.07-1.78.13a9.59,9.59,0,0,0-1.62.25,2.77,2.77,0,0,0-1.15.63,1.59,1.59,0,0,0-.44,1.18,1.57,1.57,0,0,0,.51,1.27,2.41,2.41,0,0,0,1.55.42,3.7,3.7,0,0,0,1.6-.34A6.66,6.66,0,0,0,231.06,233Z" transform="translate(-40.55 -81.22)"/><path class="cls-1" d="M244.1,235.45h-1.66v-5.59a8.48,8.48,0,0,0-.08-1.27,2.27,2.27,0,0,0-.29-.93,1.31,1.31,0,0,0-.63-.55,2.68,2.68,0,0,0-1.07-.18,3.38,3.38,0,0,0-1.42.34,6.87,6.87,0,0,0-1.41.85v7.33h-1.65v-9.82h1.65v1.09a6.54,6.54,0,0,1,1.6-1,4.17,4.17,0,0,1,1.69-.36,3,3,0,0,1,2.43,1,4.07,4.07,0,0,1,.84,2.76Z" transform="translate(-40.55 -81.22)"/><path class="cls-1" d="M254.29,232.62a2.67,2.67,0,0,1-1.11,2.2,4.8,4.8,0,0,1-3,.87,7.45,7.45,0,0,1-2-.26,10.23,10.23,0,0,1-1.52-.57V233h.09a6.35,6.35,0,0,0,1.74.94,5.38,5.38,0,0,0,1.83.35,3.52,3.52,0,0,0,1.71-.35,1.19,1.19,0,0,0,.61-1.11,1.12,1.12,0,0,0-.33-.88,3,3,0,0,0-1.28-.51l-.92-.18c-.38-.07-.72-.15-1-.23a3.46,3.46,0,0,1-1.83-1,2.48,2.48,0,0,1-.54-1.63,2.66,2.66,0,0,1,1-2.1,3.6,3.6,0,0,1,1.25-.65,5.39,5.39,0,0,1,1.71-.25,8,8,0,0,1,1.78.22,6.57,6.57,0,0,1,1.49.52v1.77h-.08a6.35,6.35,0,0,0-1.54-.79,5.45,5.45,0,0,0-1.78-.32,3.15,3.15,0,0,0-1.53.35,1.11,1.11,0,0,0-.62,1,1.09,1.09,0,0,0,.38.91,2.83,2.83,0,0,0,1.19.51l1,.21.94.19a3.54,3.54,0,0,1,1.78.91A2.39,2.39,0,0,1,254.29,232.62Z" transform="translate(-40.55 -81.22)"/><path class="cls-1" d="M265.57,235.45h-2.18l-3.94-4.3-1.07,1v3.28h-1.65V221.77h1.65v8.77l4.77-4.91h2.08l-4.56,4.54Z" transform="translate(-40.55 -81.22)"/><path class="cls-1" d="M275.35,230.71h-7.23a4.25,4.25,0,0,0,.27,1.58,2.93,2.93,0,0,0,1.83,1.73,4.08,4.08,0,0,0,1.38.22,5.59,5.59,0,0,0,2-.4,5,5,0,0,0,1.45-.79h.09v1.8a15,15,0,0,1-1.71.59,6.85,6.85,0,0,1-1.83.24,5.22,5.22,0,0,1-3.81-1.33,4.94,4.94,0,0,1-1.37-3.75,5.44,5.44,0,0,1,1.31-3.83,4.51,4.51,0,0,1,3.46-1.41,4,4,0,0,1,3.06,1.16,4.64,4.64,0,0,1,1.08,3.29Zm-1.61-1.26a3,3,0,0,0-.65-2,2.55,2.55,0,0,0-2-.71,2.86,2.86,0,0,0-2.11.78,3,3,0,0,0-.89,1.95Z" transform="translate(-40.55 -81.22)"/><path class="cls-1" d="M296,235.45h-1.74V224.17l-3.64,7.67h-1l-3.61-7.67v11.28h-1.63V222.36h2.38l3.49,7.29,3.37-7.29H296Z" transform="translate(-40.55 -81.22)"/><path class="cls-1" d="M308.82,223.91h-4.68v11.54H302.4V223.91h-4.67v-1.55h11.09Z" transform="translate(-40.55 -81.22)"/><path class="cls-1" d="M314.33,230.52h-5.49v-1.59h5.49Z" transform="translate(-40.55 -81.22)"/><path class="cls-1" d="M324.31,232.62a2.67,2.67,0,0,1-1.11,2.2,4.8,4.8,0,0,1-3,.87,7.32,7.32,0,0,1-2-.26,10,10,0,0,1-1.53-.57V233h.09a6.35,6.35,0,0,0,1.74.94,5.43,5.43,0,0,0,1.84.35,3.5,3.5,0,0,0,1.7-.35,1.2,1.2,0,0,0,.62-1.11,1.13,1.13,0,0,0-.34-.88,3,3,0,0,0-1.28-.51l-.92-.18c-.38-.07-.72-.15-1-.23a3.49,3.49,0,0,1-1.84-1,2.48,2.48,0,0,1-.54-1.63,2.66,2.66,0,0,1,1-2.1,3.57,3.57,0,0,1,1.26-.65,5.28,5.28,0,0,1,1.7-.25,7.88,7.88,0,0,1,1.78.22,6.85,6.85,0,0,1,1.5.52v1.77h-.09a6.17,6.17,0,0,0-1.54-.79,5.4,5.4,0,0,0-1.78-.32,3.08,3.08,0,0,0-1.52.35,1.11,1.11,0,0,0-.63,1,1.09,1.09,0,0,0,.38.91,2.89,2.89,0,0,0,1.19.51l1,.21.94.19a3.54,3.54,0,0,1,1.78.91A2.39,2.39,0,0,1,324.31,232.62Z" transform="translate(-40.55 -81.22)"/><path class="cls-1" d="M331.77,235.36a8.6,8.6,0,0,1-1,.2,6,6,0,0,1-1,.08,3.06,3.06,0,0,1-2.29-.81,3.63,3.63,0,0,1-.78-2.59V227H325.6v-1.39h1.11v-2.82h1.65v2.82h3.41V227h-3.41v4.47c0,.52,0,.92,0,1.21a1.92,1.92,0,0,0,.25.81,1.11,1.11,0,0,0,.53.52,2.45,2.45,0,0,0,1,.16,3.15,3.15,0,0,0,.84-.12c.3-.08.51-.14.64-.19h.08Z" transform="translate(-40.55 -81.22)"/><path class="cls-1" d="M341.91,235.45h-1.65v-1.09a8.38,8.38,0,0,1-1.6,1,4.09,4.09,0,0,1-1.69.35,3.1,3.1,0,0,1-2.41-.94,4,4,0,0,1-.86-2.78v-6.37h1.65v5.59a11.3,11.3,0,0,0,.07,1.28,2.44,2.44,0,0,0,.3.91,1.39,1.39,0,0,0,.62.56,2.61,2.61,0,0,0,1.1.18,3.44,3.44,0,0,0,1.4-.34,6.44,6.44,0,0,0,1.42-.85v-7.33h1.65Z" transform="translate(-40.55 -81.22)"/><path class="cls-1" d="M353.12,235.45h-1.65v-1a6,6,0,0,1-1.48,1,4.1,4.1,0,0,1-1.68.34,3.33,3.33,0,0,1-2.79-1.35,6.09,6.09,0,0,1-1-3.76,6.38,6.38,0,0,1,.36-2.22,5.28,5.28,0,0,1,1-1.66,4,4,0,0,1,1.4-1,4.06,4.06,0,0,1,1.64-.35,5.1,5.1,0,0,1,1.37.16,6.41,6.41,0,0,1,1.26.51v-4.26h1.65ZM351.47,233V227.4a6.36,6.36,0,0,0-1.19-.42,6,6,0,0,0-1.16-.11,2.61,2.61,0,0,0-2.16,1,4.32,4.32,0,0,0-.77,2.74,4.85,4.85,0,0,0,.6,2.66,2.13,2.13,0,0,0,1.91.91,3.72,3.72,0,0,0,1.43-.31A5.91,5.91,0,0,0,351.47,233Z" transform="translate(-40.55 -81.22)"/><path class="cls-1" d="M364.59,230.71h-7.23a4.25,4.25,0,0,0,.27,1.58,2.91,2.91,0,0,0,.75,1.1,3,3,0,0,0,1.08.63,4.14,4.14,0,0,0,1.39.22,5.63,5.63,0,0,0,2-.4,5.08,5.08,0,0,0,1.44-.79h.09v1.8a15,15,0,0,1-1.71.59,6.78,6.78,0,0,1-1.82.24,5.26,5.26,0,0,1-3.82-1.33,5,5,0,0,1-1.37-3.75,5.4,5.4,0,0,1,1.32-3.83,4.48,4.48,0,0,1,3.45-1.41,4,4,0,0,1,3.07,1.16,4.69,4.69,0,0,1,1.07,3.29ZM363,229.45a2.92,2.92,0,0,0-.65-2,2.54,2.54,0,0,0-2-.71,2.89,2.89,0,0,0-2.12.78,3.06,3.06,0,0,0-.89,1.95Z" transform="translate(-40.55 -81.22)"/><path class="cls-1" d="M375.31,235.45h-1.66v-5.59a10.13,10.13,0,0,0-.07-1.27,2.43,2.43,0,0,0-.29-.93,1.38,1.38,0,0,0-.64-.55,2.68,2.68,0,0,0-1.07-.18,3.31,3.31,0,0,0-1.41.34,6.68,6.68,0,0,0-1.42.85v7.33H367.1v-9.82h1.65v1.09a6.73,6.73,0,0,1,1.6-1,4.22,4.22,0,0,1,1.7-.36,3,3,0,0,1,2.42,1,4.07,4.07,0,0,1,.84,2.76Z" transform="translate(-40.55 -81.22)"/><path class="cls-1" d="M383.59,235.36a8.78,8.78,0,0,1-1,.2,6,6,0,0,1-1,.08,3,3,0,0,1-2.28-.81,3.58,3.58,0,0,1-.79-2.59V227h-1.11v-1.39h1.11v-2.82h1.66v2.82h3.41V227h-3.41v4.47c0,.52,0,.92,0,1.21a1.92,1.92,0,0,0,.25.81,1.16,1.16,0,0,0,.53.52,2.45,2.45,0,0,0,1,.16,3.28,3.28,0,0,0,.85-.12c.29-.08.5-.14.63-.19h.09Z" transform="translate(-40.55 -81.22)"/><path class="cls-1" d="M393.8,230.71h-7.23a4.25,4.25,0,0,0,.27,1.58,2.93,2.93,0,0,0,1.83,1.73,4.09,4.09,0,0,0,1.39.22,5.58,5.58,0,0,0,2-.4,5,5,0,0,0,1.45-.79h.09v1.8a15,15,0,0,1-1.71.59,6.85,6.85,0,0,1-1.83.24,5.22,5.22,0,0,1-3.81-1.33,4.94,4.94,0,0,1-1.37-3.75,5.44,5.44,0,0,1,1.31-3.83,4.51,4.51,0,0,1,3.46-1.41,4,4,0,0,1,3.06,1.16,4.64,4.64,0,0,1,1.08,3.29Zm-1.61-1.26a2.92,2.92,0,0,0-.65-2,2.55,2.55,0,0,0-2-.71,2.86,2.86,0,0,0-2.11.78,3,3,0,0,0-.89,1.95Z" transform="translate(-40.55 -81.22)"/><path class="cls-1" d="M404.51,235.45h-1.65v-5.59a10.06,10.06,0,0,0-.08-1.27,2.27,2.27,0,0,0-.29-.93,1.36,1.36,0,0,0-.63-.55,2.71,2.71,0,0,0-1.07-.18,3.35,3.35,0,0,0-1.42.34,6.87,6.87,0,0,0-1.41.85v7.33H396.3v-9.82H398v1.09a6.54,6.54,0,0,1,1.6-1,4.17,4.17,0,0,1,1.69-.36,3.06,3.06,0,0,1,2.43,1,4.12,4.12,0,0,1,.83,2.76Z" transform="translate(-40.55 -81.22)"/><path class="cls-1" d="M421,232.62a2.65,2.65,0,0,1-1.12,2.2,4.79,4.79,0,0,1-3,.87,7.39,7.39,0,0,1-2-.26,10,10,0,0,1-1.53-.57V233h.09a6.35,6.35,0,0,0,1.74.94,5.43,5.43,0,0,0,1.84.35,3.47,3.47,0,0,0,1.7-.35,1.2,1.2,0,0,0,.62-1.11A1.12,1.12,0,0,0,419,232a3.09,3.09,0,0,0-1.29-.51l-.92-.18c-.37-.07-.72-.15-1-.23a3.46,3.46,0,0,1-1.83-1,2.48,2.48,0,0,1-.54-1.63,2.63,2.63,0,0,1,.25-1.14,2.76,2.76,0,0,1,.76-1,3.52,3.52,0,0,1,1.25-.65,5.33,5.33,0,0,1,1.7-.25,7.81,7.81,0,0,1,1.78.22,6.85,6.85,0,0,1,1.5.52v1.77h-.09a6,6,0,0,0-1.54-.79,5.35,5.35,0,0,0-1.77-.32,3.15,3.15,0,0,0-1.53.35,1.22,1.22,0,0,0-.25,1.94,3,3,0,0,0,1.2.51l1,.21.95.19a3.51,3.51,0,0,1,1.77.91A2.35,2.35,0,0,1,421,232.62Z" transform="translate(-40.55 -81.22)"/><path class="cls-1" d="M431.77,230.54a5.5,5.5,0,0,1-1.23,3.79,4.62,4.62,0,0,1-6.61,0,6.5,6.5,0,0,1,0-7.58,4.62,4.62,0,0,1,6.61,0A5.52,5.52,0,0,1,431.77,230.54Zm-1.71,0a4.52,4.52,0,0,0-.74-2.83,2.8,2.8,0,0,0-4.17,0,4.52,4.52,0,0,0-.74,2.83,4.45,4.45,0,0,0,.75,2.8,2.73,2.73,0,0,0,4.15,0A4.44,4.44,0,0,0,430.06,230.54Z" transform="translate(-40.55 -81.22)"/><path class="cls-1" d="M448.65,235.45H447v-5.59a12,12,0,0,0-.06-1.22,2.61,2.61,0,0,0-.24-.94,1.3,1.3,0,0,0-.58-.58,2.57,2.57,0,0,0-1.09-.19,3.11,3.11,0,0,0-1.39.35,8.64,8.64,0,0,0-1.39.88c0,.14,0,.29.05.47s0,.36,0,.53v6.29h-1.65v-5.59c0-.44,0-.85-.05-1.24a2.41,2.41,0,0,0-.25-.93,1.28,1.28,0,0,0-.58-.57,2.42,2.42,0,0,0-1.09-.19,2.94,2.94,0,0,0-1.35.34,7.44,7.44,0,0,0-1.36.85v7.33h-1.65v-9.82H436v1.09a7.07,7.07,0,0,1,1.54-1,3.81,3.81,0,0,1,1.64-.36,3.25,3.25,0,0,1,1.7.42,2.57,2.57,0,0,1,1,1.17,8.39,8.39,0,0,1,1.83-1.22,4.22,4.22,0,0,1,1.77-.37,2.85,2.85,0,0,1,2.38,1,4.28,4.28,0,0,1,.77,2.74Z" transform="translate(-40.55 -81.22)"/><path class="cls-1" d="M466.37,235.45h-1.65v-5.59a10.06,10.06,0,0,0-.08-1.27,2.27,2.27,0,0,0-.29-.93,1.41,1.41,0,0,0-.63-.55,2.77,2.77,0,0,0-1.08-.18,3.31,3.31,0,0,0-1.41.34,7.21,7.21,0,0,0-1.42.85v7.33h-1.65V221.77h1.65v4.95a6.73,6.73,0,0,1,1.6-1,4.22,4.22,0,0,1,1.7-.36,3.06,3.06,0,0,1,2.43,1,4.12,4.12,0,0,1,.83,2.76Z" transform="translate(-40.55 -81.22)"/><path class="cls-1" d="M477.18,235.45h-1.64v-1l-.6.42a4.27,4.27,0,0,1-.72.43,5.27,5.27,0,0,1-1,.33,4.76,4.76,0,0,1-1.26.14,3.14,3.14,0,0,1-2.25-.88,3,3,0,0,1-.92-2.24,2.86,2.86,0,0,1,1.85-2.89,7.59,7.59,0,0,1,2.15-.54q1.26-.13,2.7-.21v-.25a1.94,1.94,0,0,0-.2-.93,1.39,1.39,0,0,0-.57-.58,2.25,2.25,0,0,0-.84-.28,8.47,8.47,0,0,0-1-.07,7.27,7.27,0,0,0-1.45.17,11.79,11.79,0,0,0-1.65.5h-.09v-1.68c.32-.09.79-.18,1.4-.29a11.14,11.14,0,0,1,1.8-.16,8.77,8.77,0,0,1,1.81.17,3.58,3.58,0,0,1,1.33.59,2.55,2.55,0,0,1,.84,1,3.86,3.86,0,0,1,.29,1.59ZM475.54,233V230.3c-.51,0-1.1.07-1.78.13a9.43,9.43,0,0,0-1.62.25,2.81,2.81,0,0,0-1.16.63,1.84,1.84,0,0,0,.08,2.45,2.39,2.39,0,0,0,1.55.42,3.63,3.63,0,0,0,1.59-.34A6.73,6.73,0,0,0,475.54,233Z" transform="translate(-40.55 -81.22)"/><path class="cls-1" d="M488.33,235.45h-1.66v-1a6,6,0,0,1-1.48,1,4.1,4.1,0,0,1-1.68.34,3.33,3.33,0,0,1-2.79-1.35,6.09,6.09,0,0,1-1-3.76,6.39,6.39,0,0,1,.35-2.22,5.28,5.28,0,0,1,1-1.66,4,4,0,0,1,1.4-1,4.11,4.11,0,0,1,1.65-.35,5.21,5.21,0,0,1,1.37.16,6.59,6.59,0,0,1,1.25.51v-4.26h1.66ZM486.67,233V227.4a6.36,6.36,0,0,0-1.19-.42,5.91,5.91,0,0,0-1.15-.11,2.62,2.62,0,0,0-2.17,1,4.32,4.32,0,0,0-.77,2.74,4.85,4.85,0,0,0,.6,2.66,2.14,2.14,0,0,0,1.91.91,3.72,3.72,0,0,0,1.43-.31A5.91,5.91,0,0,0,486.67,233Z" transform="translate(-40.55 -81.22)"/><path class="cls-1" d="M499.8,230.71h-7.24a4.25,4.25,0,0,0,.27,1.58,3.15,3.15,0,0,0,.75,1.1,3,3,0,0,0,1.09.63,4.08,4.08,0,0,0,1.38.22,5.63,5.63,0,0,0,2-.4,4.8,4.8,0,0,0,1.44-.79h.09v1.8a14.22,14.22,0,0,1-1.7.59,6.85,6.85,0,0,1-1.83.24,5.26,5.26,0,0,1-3.82-1.33,5,5,0,0,1-1.37-3.75,5.4,5.4,0,0,1,1.32-3.83,4.5,4.5,0,0,1,3.46-1.41,4,4,0,0,1,3.06,1.16,4.64,4.64,0,0,1,1.08,3.29Zm-1.61-1.26a3,3,0,0,0-.66-2,2.53,2.53,0,0,0-2-.71,2.89,2.89,0,0,0-2.12.78,3.06,3.06,0,0,0-.89,1.95Z" transform="translate(-40.55 -81.22)"/><path class="cls-1" d="M516.26,235.45h-1.65v-1l-.59.42a4.7,4.7,0,0,1-.72.43,5.55,5.55,0,0,1-.95.33,4.76,4.76,0,0,1-1.26.14,3.11,3.11,0,0,1-2.25-.88,2.93,2.93,0,0,1-.92-2.24,2.87,2.87,0,0,1,1.84-2.89,7.75,7.75,0,0,1,2.16-.54c.83-.09,1.73-.16,2.69-.21v-.25a2,2,0,0,0-.19-.93,1.45,1.45,0,0,0-.57-.58,2.38,2.38,0,0,0-.84-.28,8.62,8.62,0,0,0-1-.07,7.19,7.19,0,0,0-1.45.17,11.51,11.51,0,0,0-1.66.5h-.08v-1.68c.32-.09.78-.18,1.39-.29a11.16,11.16,0,0,1,1.81-.16,8.6,8.6,0,0,1,1.8.17,3.51,3.51,0,0,1,1.33.59,2.66,2.66,0,0,1,.85,1,3.86,3.86,0,0,1,.29,1.59ZM514.61,233V230.3l-1.78.13a9.59,9.59,0,0,0-1.62.25,2.77,2.77,0,0,0-1.15.63,1.59,1.59,0,0,0-.44,1.18,1.57,1.57,0,0,0,.51,1.27,2.42,2.42,0,0,0,1.56.42,3.63,3.63,0,0,0,1.59-.34A6.66,6.66,0,0,0,514.61,233Z" transform="translate(-40.55 -81.22)"/><path class="cls-1" d="M527.65,235.45H526v-5.59a10.06,10.06,0,0,0-.08-1.27,2.43,2.43,0,0,0-.29-.93,1.38,1.38,0,0,0-.64-.55,2.68,2.68,0,0,0-1.07-.18,3.31,3.31,0,0,0-1.41.34,6.68,6.68,0,0,0-1.42.85v7.33h-1.65v-9.82h1.65v1.09a6.73,6.73,0,0,1,1.6-1,4.22,4.22,0,0,1,1.7-.36,3,3,0,0,1,2.42,1,4.07,4.07,0,0,1,.84,2.76Z" transform="translate(-40.55 -81.22)"/><path class="cls-1" d="M537.84,232.62a2.67,2.67,0,0,1-1.11,2.2,4.8,4.8,0,0,1-3,.87,7.32,7.32,0,0,1-2-.26,10,10,0,0,1-1.53-.57V233h.09a6.35,6.35,0,0,0,1.74.94,5.43,5.43,0,0,0,1.84.35,3.5,3.5,0,0,0,1.7-.35,1.2,1.2,0,0,0,.62-1.11,1.13,1.13,0,0,0-.34-.88,3,3,0,0,0-1.28-.51l-.92-.18c-.38-.07-.72-.15-1-.23a3.53,3.53,0,0,1-1.84-1,2.48,2.48,0,0,1-.54-1.63,2.63,2.63,0,0,1,1-2.1,3.43,3.43,0,0,1,1.25-.65,5.28,5.28,0,0,1,1.7-.25,7.88,7.88,0,0,1,1.78.22,6.85,6.85,0,0,1,1.5.52v1.77h-.09a6.17,6.17,0,0,0-1.54-.79,5.35,5.35,0,0,0-1.77-.32,3.09,3.09,0,0,0-1.53.35,1.11,1.11,0,0,0-.63,1,1.09,1.09,0,0,0,.38.91,2.88,2.88,0,0,0,1.2.51l1,.21.94.19a3.54,3.54,0,0,1,1.78.91A2.34,2.34,0,0,1,537.84,232.62Z" transform="translate(-40.55 -81.22)"/><path class="cls-1" d="M548.7,225.63l-4,9.82h-1.67l-3.94-9.82h1.79l3,7.81,3-7.81Z" transform="translate(-40.55 -81.22)"/><path class="cls-1" d="M558.14,235.45h-1.65v-1l-.59.42a4.7,4.7,0,0,1-.72.43,5.55,5.55,0,0,1-.95.33,4.76,4.76,0,0,1-1.26.14,3.11,3.11,0,0,1-2.25-.88,2.93,2.93,0,0,1-.92-2.24,2.87,2.87,0,0,1,1.84-2.89,7.75,7.75,0,0,1,2.16-.54c.83-.09,1.73-.16,2.69-.21v-.25a2,2,0,0,0-.19-.93,1.45,1.45,0,0,0-.57-.58,2.38,2.38,0,0,0-.84-.28,8.62,8.62,0,0,0-1-.07,7.19,7.19,0,0,0-1.45.17,11.51,11.51,0,0,0-1.66.5h-.08v-1.68c.32-.09.78-.18,1.39-.29a11.16,11.16,0,0,1,1.81-.16,8.6,8.6,0,0,1,1.8.17,3.51,3.51,0,0,1,1.33.59,2.66,2.66,0,0,1,.85,1,3.86,3.86,0,0,1,.29,1.59ZM556.49,233V230.3l-1.78.13a9.59,9.59,0,0,0-1.62.25,2.77,2.77,0,0,0-1.15.63,1.59,1.59,0,0,0-.44,1.18,1.57,1.57,0,0,0,.51,1.27,2.42,2.42,0,0,0,1.56.42,3.63,3.63,0,0,0,1.59-.34A6.66,6.66,0,0,0,556.49,233Z" transform="translate(-40.55 -81.22)"/><path class="cls-1" d="M567.44,227.43h-.08a4.91,4.91,0,0,0-.72-.12,6.5,6.5,0,0,0-.82,0,3.51,3.51,0,0,0-1.48.33,7.06,7.06,0,0,0-1.37.88v7h-1.65v-9.82H563v1.45a8.13,8.13,0,0,1,1.74-1.12,3.76,3.76,0,0,1,1.53-.33l.62,0,.58.09Z" transform="translate(-40.55 -81.22)"/><path class="cls-1" d="M580.61,223.37h-.09l-.71-.16a3.8,3.8,0,0,0-.77-.08,2.09,2.09,0,0,0-1.54.47,2.35,2.35,0,0,0-.48,1.7v.33h3V227h-2.93v8.43h-1.65V227H574.3v-1.39h1.12v-.32a3.8,3.8,0,0,1,.87-2.69,3.27,3.27,0,0,1,2.51-.94,7.57,7.57,0,0,1,1,.06q.44,0,.81.12Z" transform="translate(-40.55 -81.22)"/><path class="cls-1" d="M590,230.54a5.5,5.5,0,0,1-1.23,3.79,4.61,4.61,0,0,1-6.6,0,6.45,6.45,0,0,1,0-7.58,4.61,4.61,0,0,1,6.6,0A5.52,5.52,0,0,1,590,230.54Zm-1.7,0a4.45,4.45,0,0,0-.75-2.83,2.79,2.79,0,0,0-4.16,0,5.72,5.72,0,0,0,0,5.63,2.74,2.74,0,0,0,4.16,0A4.44,4.44,0,0,0,588.32,230.54ZM584.56,224h-1.75v-1.72h1.75Zm3.63,0h-1.75v-1.72h1.75Z" transform="translate(-40.55 -81.22)"/><path class="cls-1" d="M598.71,227.43h-.09a4.91,4.91,0,0,0-.72-.12,6.5,6.5,0,0,0-.82,0,3.51,3.51,0,0,0-1.48.33,7.06,7.06,0,0,0-1.37.88v7h-1.65v-9.82h1.65v1.45A8.13,8.13,0,0,1,596,226a3.76,3.76,0,0,1,1.53-.33l.63,0,.58.09Z" transform="translate(-40.55 -81.22)"/><path class="cls-1" d="M615.5,235.45h-2.18l-3.93-4.3-1.08,1v3.28h-1.65V221.77h1.65v8.77l4.78-4.91h2.08l-4.56,4.54Z" transform="translate(-40.55 -81.22)"/><path class="cls-1" d="M624.87,235.45h-1.64v-1l-.59.42a4.34,4.34,0,0,1-.73.43,5,5,0,0,1-.95.33,4.71,4.71,0,0,1-1.26.14,3.14,3.14,0,0,1-2.25-.88,3,3,0,0,1-.92-2.24,3.12,3.12,0,0,1,.48-1.81,3.19,3.19,0,0,1,1.37-1.08,7.67,7.67,0,0,1,2.15-.54q1.26-.13,2.7-.21v-.25a1.94,1.94,0,0,0-.2-.93,1.39,1.39,0,0,0-.57-.58,2.25,2.25,0,0,0-.84-.28,8.47,8.47,0,0,0-1-.07,7.36,7.36,0,0,0-1.45.17,11.79,11.79,0,0,0-1.65.5h-.09v-1.68c.32-.09.79-.18,1.4-.29a11.14,11.14,0,0,1,1.8-.16,8.77,8.77,0,0,1,1.81.17,3.58,3.58,0,0,1,1.33.59,2.55,2.55,0,0,1,.84,1,3.71,3.71,0,0,1,.29,1.59ZM623.23,233V230.3c-.5,0-1.1.07-1.78.13a9.59,9.59,0,0,0-1.62.25,2.71,2.71,0,0,0-1.15.63,1.55,1.55,0,0,0-.44,1.18,1.57,1.57,0,0,0,.51,1.27,2.39,2.39,0,0,0,1.55.42,3.63,3.63,0,0,0,1.59-.34A6.73,6.73,0,0,0,623.23,233Z" transform="translate(-40.55 -81.22)"/><path class="cls-1" d="M634.18,227.43h-.09a4.58,4.58,0,0,0-.71-.12,6.78,6.78,0,0,0-.83,0,3.43,3.43,0,0,0-1.47.33,6.77,6.77,0,0,0-1.37.88v7h-1.66v-9.82h1.66v1.45a7.87,7.87,0,0,1,1.73-1.12,3.78,3.78,0,0,1,1.54-.33l.62,0,.58.09Z" transform="translate(-40.55 -81.22)"/><path class="cls-1" d="M640.83,235.36a9,9,0,0,1-1,.2,6,6,0,0,1-1,.08,3,3,0,0,1-2.29-.81,3.63,3.63,0,0,1-.78-2.59V227h-1.12v-1.39h1.12v-2.82h1.65v2.82h3.41V227h-3.41v4.47c0,.52,0,.92,0,1.21a1.91,1.91,0,0,0,.24.81,1.18,1.18,0,0,0,.54.52,2.45,2.45,0,0,0,1,.16,3.15,3.15,0,0,0,.84-.12c.3-.08.51-.14.64-.19h.08Z" transform="translate(-40.55 -81.22)"/><path class="cls-1" d="M651.2,230.54a5.5,5.5,0,0,1-1.23,3.79,4.62,4.62,0,0,1-6.61,0,6.45,6.45,0,0,1,0-7.58,4.62,4.62,0,0,1,6.61,0A5.52,5.52,0,0,1,651.2,230.54Zm-1.71,0a4.45,4.45,0,0,0-.75-2.83,2.5,2.5,0,0,0-2.07-.93,2.53,2.53,0,0,0-2.09.93,4.52,4.52,0,0,0-.74,2.83,4.45,4.45,0,0,0,.75,2.8,2.47,2.47,0,0,0,2.08,1,2.5,2.5,0,0,0,2.07-1A4.44,4.44,0,0,0,649.49,230.54Z" transform="translate(-40.55 -81.22)"/><path class="cls-1" d="M659.88,227.43h-.09a4.7,4.7,0,0,0-.72-.12,6.5,6.5,0,0,0-.82,0,3.43,3.43,0,0,0-1.47.33,6.5,6.5,0,0,0-1.37.88v7h-1.66v-9.82h1.66v1.45a7.87,7.87,0,0,1,1.73-1.12,3.76,3.76,0,0,1,1.53-.33l.63,0,.58.09Z" transform="translate(-40.55 -81.22)"/><path class="cls-1" d="M669.64,235.45H668v-5.59a10.06,10.06,0,0,0-.08-1.27,2.27,2.27,0,0,0-.29-.93,1.36,1.36,0,0,0-.63-.55,2.71,2.71,0,0,0-1.07-.18,3.35,3.35,0,0,0-1.42.34,6.87,6.87,0,0,0-1.41.85v7.33h-1.66v-9.82h1.66v1.09a6.54,6.54,0,0,1,1.6-1,4.17,4.17,0,0,1,1.69-.36,3.06,3.06,0,0,1,2.43,1,4.06,4.06,0,0,1,.83,2.76Z" transform="translate(-40.55 -81.22)"/><path class="cls-1" d="M680.45,235.45h-1.64v-1l-.59.42a4.34,4.34,0,0,1-.73.43,5,5,0,0,1-1,.33,4.63,4.63,0,0,1-1.25.14,3.11,3.11,0,0,1-2.25-.88,2.93,2.93,0,0,1-.93-2.24,3.12,3.12,0,0,1,.48-1.81,3.19,3.19,0,0,1,1.37-1.08,7.67,7.67,0,0,1,2.15-.54q1.26-.13,2.7-.21v-.25a1.94,1.94,0,0,0-.2-.93,1.42,1.42,0,0,0-.56-.58,2.37,2.37,0,0,0-.85-.28,8.47,8.47,0,0,0-1-.07,7.36,7.36,0,0,0-1.45.17,11.79,11.79,0,0,0-1.65.5H673v-1.68c.33-.09.79-.18,1.4-.29a11.14,11.14,0,0,1,1.8-.16,8.7,8.7,0,0,1,1.81.17,3.51,3.51,0,0,1,1.33.59,2.55,2.55,0,0,1,.84,1,3.71,3.71,0,0,1,.29,1.59ZM678.81,233V230.3c-.5,0-1.1.07-1.78.13a9.59,9.59,0,0,0-1.62.25,2.71,2.71,0,0,0-1.15.63,1.55,1.55,0,0,0-.44,1.18,1.57,1.57,0,0,0,.51,1.27,2.41,2.41,0,0,0,1.55.42,3.63,3.63,0,0,0,1.59-.34A6.46,6.46,0,0,0,678.81,233Z" transform="translate(-40.55 -81.22)"/><path class="cls-1" d="M698.6,230.46a6.68,6.68,0,0,1-.34,2.22,5.06,5.06,0,0,1-.94,1.65,4.3,4.3,0,0,1-1.37,1,3.89,3.89,0,0,1-1.64.35,4.86,4.86,0,0,1-1.46-.2,6.62,6.62,0,0,1-1.23-.53l-.11.46H690V221.77h1.66v4.89a7.18,7.18,0,0,1,1.47-.94,4.16,4.16,0,0,1,1.76-.36,3.26,3.26,0,0,1,2.75,1.33A6.17,6.17,0,0,1,698.6,230.46Zm-1.7,0a5,5,0,0,0-.58-2.67,2,2,0,0,0-1.87-.91,3.87,3.87,0,0,0-1.46.31,6.1,6.1,0,0,0-1.37.81v5.62a7,7,0,0,0,1.2.44,5,5,0,0,0,1.15.13,2.66,2.66,0,0,0,2.15-.91A4.24,4.24,0,0,0,696.9,230.51Z" transform="translate(-40.55 -81.22)"/><path class="cls-1" d="M702.85,235.45H701.2V221.77h1.65Z" transform="translate(-40.55 -81.22)"/><path class="cls-1" d="M714.34,230.71H707.1a4.05,4.05,0,0,0,.28,1.58,2.87,2.87,0,0,0,1.83,1.73,4.08,4.08,0,0,0,1.38.22,5.63,5.63,0,0,0,2-.4,4.8,4.8,0,0,0,1.44-.79h.09v1.8a14.22,14.22,0,0,1-1.7.59,6.85,6.85,0,0,1-1.83.24,5.26,5.26,0,0,1-3.82-1.33,5,5,0,0,1-1.37-3.75,5.4,5.4,0,0,1,1.32-3.83,4.5,4.5,0,0,1,3.46-1.41,4,4,0,0,1,3.06,1.16,4.64,4.64,0,0,1,1.08,3.29Zm-1.61-1.26a3,3,0,0,0-.66-2,2.53,2.53,0,0,0-2-.71,2.89,2.89,0,0,0-2.12.78,3.06,3.06,0,0,0-.89,1.95Z" transform="translate(-40.55 -81.22)"/><path class="cls-1" d="M725.33,225.63l-4,9.82H719.7l-4-9.82h1.79l3,7.81,3-7.81Z" transform="translate(-40.55 -81.22)"/><path class="cls-1" d="M735.49,235.45h-1.65V221.77h1.65Z" transform="translate(-40.55 -81.22)"/><path class="cls-1" d="M740.54,224h-1.87v-1.72h1.87Zm-.11,11.46h-1.65v-9.82h1.65Z" transform="translate(-40.55 -81.22)"/><path class="cls-1" d="M748.8,235.36a8.78,8.78,0,0,1-1,.2,6,6,0,0,1-1,.08,3,3,0,0,1-2.28-.81,3.63,3.63,0,0,1-.78-2.59V227h-1.12v-1.39h1.12v-2.82h1.65v2.82h3.41V227h-3.41v4.47c0,.52,0,.92,0,1.21a2.07,2.07,0,0,0,.25.81,1.16,1.16,0,0,0,.53.52,2.49,2.49,0,0,0,1,.16,3.28,3.28,0,0,0,.85-.12c.29-.08.5-.14.63-.19h.09Z" transform="translate(-40.55 -81.22)"/><path class="cls-1" d="M759,230.71h-7.23a4.25,4.25,0,0,0,.27,1.58,2.93,2.93,0,0,0,1.83,1.73,4.09,4.09,0,0,0,1.39.22,5.63,5.63,0,0,0,2-.4,5.08,5.08,0,0,0,1.44-.79h.09v1.8a15,15,0,0,1-1.71.59,6.83,6.83,0,0,1-1.82.24,5.24,5.24,0,0,1-3.82-1.33,5,5,0,0,1-1.37-3.75,5.44,5.44,0,0,1,1.31-3.83,4.51,4.51,0,0,1,3.46-1.41,4,4,0,0,1,3.07,1.16,4.69,4.69,0,0,1,1.07,3.29Zm-1.61-1.26a2.92,2.92,0,0,0-.65-2,2.55,2.55,0,0,0-2-.71,2.86,2.86,0,0,0-2.11.78,3.06,3.06,0,0,0-.89,1.95Z" transform="translate(-40.55 -81.22)"/><path class="cls-1" d="M769.51,235.45h-1.65V221.77h1.65Z" transform="translate(-40.55 -81.22)"/><path class="cls-1" d="M780.41,235.45h-1.64v-1l-.59.42a4.34,4.34,0,0,1-.73.43,5,5,0,0,1-1,.33,4.68,4.68,0,0,1-1.25.14,3.11,3.11,0,0,1-2.25-.88,2.93,2.93,0,0,1-.93-2.24,3.12,3.12,0,0,1,.48-1.81,3.19,3.19,0,0,1,1.37-1.08,7.67,7.67,0,0,1,2.15-.54q1.26-.13,2.7-.21v-.25a1.94,1.94,0,0,0-.2-.93,1.39,1.39,0,0,0-.57-.58,2.25,2.25,0,0,0-.84-.28,8.47,8.47,0,0,0-1-.07,7.36,7.36,0,0,0-1.45.17,11.79,11.79,0,0,0-1.65.5h-.09v-1.68c.32-.09.79-.18,1.4-.29a11.14,11.14,0,0,1,1.8-.16,8.77,8.77,0,0,1,1.81.17,3.58,3.58,0,0,1,1.33.59,2.55,2.55,0,0,1,.84,1,3.71,3.71,0,0,1,.29,1.59ZM778.77,233V230.3c-.5,0-1.1.07-1.78.13a9.59,9.59,0,0,0-1.62.25,2.71,2.71,0,0,0-1.15.63,1.55,1.55,0,0,0-.44,1.18,1.57,1.57,0,0,0,.51,1.27,2.41,2.41,0,0,0,1.55.42,3.63,3.63,0,0,0,1.59-.34A6.73,6.73,0,0,0,778.77,233Z" transform="translate(-40.55 -81.22)"/><path class="cls-1" d="M788.69,235.36a9,9,0,0,1-1,.2,6.12,6.12,0,0,1-1,.08,3,3,0,0,1-2.29-.81,3.63,3.63,0,0,1-.78-2.59V227h-1.12v-1.39h1.12v-2.82h1.65v2.82h3.41V227h-3.41v4.47c0,.52,0,.92,0,1.21a1.91,1.91,0,0,0,.24.81,1.18,1.18,0,0,0,.54.52,2.45,2.45,0,0,0,1,.16,3.15,3.15,0,0,0,.84-.12c.29-.08.51-.14.63-.19h.09Z" transform="translate(-40.55 -81.22)"/><path class="cls-1" d="M797.89,225.44a3.73,3.73,0,0,1-.3,1.53,4.32,4.32,0,0,1-.81,1.19,7.14,7.14,0,0,1-1.14.94c-.42.3-.88.58-1.36.86v2h-1.57v-2.68l1.23-.71a6.41,6.41,0,0,0,1.09-.78,4,4,0,0,0,.79-.95,2.42,2.42,0,0,0,.28-1.24,1.7,1.7,0,0,0-.67-1.48,2.87,2.87,0,0,0-1.74-.49,5.4,5.4,0,0,0-1.8.3,6.87,6.87,0,0,0-1.34.61h-.08v-1.8a9,9,0,0,1,1.56-.42,8.8,8.8,0,0,1,1.79-.19,4.45,4.45,0,0,1,3,.92A3,3,0,0,1,797.89,225.44Zm-3.47,10h-1.79v-1.86h1.79Z" transform="translate(-40.55 -81.22)"/></svg>